<svg width="110" height="33" viewBox="0 0 110 33" fill="none" xmlns="http://www.w3.org/2000/svg">
<g clip-path="url(#clip0_586_3075)">
<path d="M106.165 12.505L106.021 12.3568L106.152 12.1958C107.073 11.0749 107.524 9.73494 107.46 8.31448C107.312 5.10637 104.444 2.59399 100.934 2.59399H93.3844C92.131 2.59399 91.1143 3.61827 91.1143 4.8809V21.0632C91.1143 22.3258 92.131 23.3501 93.3844 23.3501H100.908C102.763 23.3501 104.528 22.6801 105.874 21.4658C107.245 20.2322 108 18.5991 108 16.8727C108 15.2525 107.348 13.7 106.165 12.4986V12.505ZM95.5331 6.75552H101.241C102.36 6.75552 103.054 7.70249 103.054 8.58183C103.054 9.70918 102.113 10.4081 101.241 10.4081H95.5331V6.75874V6.75552ZM101.273 19.2015H95.5331V14.5632H101.273C102.165 14.5632 103.578 15.2139 103.578 16.9629C103.578 17.9034 102.775 19.2047 101.273 19.2047V19.2015Z" fill="white"/>
<path d="M81.8096 10.8816C80.0702 10.4049 77.9982 9.86052 77.9183 8.44973C77.8607 7.45766 78.6473 6.61698 79.9071 6.45915C82.4586 6.13705 84.7512 7.65092 85.9503 7.95047C87.1397 8.2468 88.1117 7.21931 88.2332 6.21436C88.4219 4.66184 86.8967 3.81471 86.3244 3.4604C85.3555 2.86452 83.6481 2.15268 81.0294 2.15268C76.4986 2.15268 73.3332 4.79068 73.3332 8.5689C73.3332 10.6142 74.0813 12.1249 75.5746 13.2522C78.481 15.4457 84.1117 15.1848 84.1181 17.446C84.1245 19.4752 80.4059 20.7282 76.3068 17.9968C75.9455 17.7101 75.5138 17.5555 75.047 17.5555C73.9503 17.5555 73.0198 18.4896 73.0166 19.5944C73.0166 19.9616 73.1125 20.3223 73.298 20.638L73.2212 20.6831L73.3012 20.6444C73.3236 20.6831 73.3491 20.7249 73.3747 20.7636C73.7424 21.3176 74.2892 21.8426 74.9511 22.2807C76.0094 22.9764 77.8863 23.8107 80.8248 23.8107C83.2164 23.8107 85.2212 23.2083 86.6281 22.0649C88.0606 20.9021 88.8152 19.2368 88.8152 17.243C88.8152 13.2844 85.4419 11.8833 81.8128 10.888L81.8096 10.8816Z" fill="white"/>
<path d="M68.4507 2.60379H67.0534C66.2508 2.60379 65.5186 3.06761 65.1701 3.79556L60.3931 13.7484L55.6161 3.79556C55.2676 3.06761 54.5354 2.60379 53.7328 2.60379H52.3356C51.0918 2.60379 50.0718 3.62807 50.0718 4.88426V21.321C50.0718 22.9315 51.7792 24.149 53.4675 23.2278C54.1069 22.88 54.4906 22.1939 54.4906 21.4627V11.6773L58.4587 19.353C58.8647 20.1389 59.6289 20.5319 60.3899 20.5319C61.1509 20.5319 61.9151 20.1389 62.3212 19.353L66.2892 11.6773V21.4627C66.2892 22.1939 66.6729 22.8832 67.3124 23.2278C69.0006 24.1458 70.7081 22.9315 70.7081 21.321V4.88426C70.7081 3.63129 69.6913 2.60379 68.4443 2.60379H68.4507Z" fill="white"/>
<path d="M27.9563 16.4796L15.9124 2.02047C13.8692 -0.432431 10.2395 -0.752839 7.80523 1.30482C5.37094 3.36247 5.05388 7.019 7.09706 9.4719L19.141 23.931C21.1842 26.3839 24.8139 26.7043 27.2481 24.6467C29.6824 22.589 29.9995 18.9325 27.9563 16.4796Z" fill="url(#paint0_radial_586_3075)"/>
<path d="M20.8983 4.58916L17.9108 18.9949C17.2608 22.1293 19.2555 25.2008 22.3661 25.8555C25.4767 26.5101 28.5252 24.4999 29.1752 21.3655L32.1628 6.95976C32.8128 3.82539 30.8181 0.753811 27.7075 0.0991894C24.5969 -0.555432 21.5484 1.4548 20.8983 4.58916Z" fill="url(#paint1_radial_586_3075)"/>
<path d="M42.9768 16.4792L30.9329 2.02007C28.8897 -0.432828 25.26 -0.753236 22.8257 1.30442C20.3914 3.36207 20.0744 7.0186 22.1176 9.4715L34.1615 23.9306C36.2047 26.3835 39.8344 26.7039 42.2686 24.6463C44.7029 22.5886 45.02 18.9321 42.9768 16.4792Z" fill="url(#paint2_radial_586_3075)"/>
<path d="M5.7554 25.9977C8.93401 25.9977 11.5108 23.402 11.5108 20.1999C11.5108 16.9979 8.93401 14.4021 5.7554 14.4021C2.57678 14.4021 0 16.9979 0 20.1999C0 23.402 2.57678 25.9977 5.7554 25.9977Z" fill="url(#paint3_radial_586_3075)"/>
<path d="M52.3675 31.2673C52.083 31.2673 51.824 31.2157 51.5842 31.1127C51.3443 31.0096 51.1365 30.8679 50.9607 30.6875C50.7848 30.5071 50.6505 30.2978 50.5514 30.0562C50.4523 29.8146 50.4043 29.5601 50.4043 29.2864V29.2735C50.4043 29.0029 50.4523 28.7452 50.5514 28.5004C50.6505 28.2556 50.788 28.0431 50.9638 27.8627C51.1397 27.6823 51.3507 27.5374 51.5905 27.4311C51.8304 27.3248 52.0957 27.27 52.3835 27.27C52.6713 27.27 52.9431 27.3151 53.1541 27.4053C53.3651 27.4955 53.5538 27.6082 53.7137 27.7499C53.7424 27.7757 53.7712 27.8144 53.8032 27.8659C53.8352 27.9207 53.8511 27.9819 53.8511 28.0559C53.8511 28.1655 53.8128 28.2621 53.7328 28.3394C53.6529 28.4167 53.5602 28.4553 53.4483 28.4553C53.3364 28.4553 53.2564 28.4264 53.1893 28.3684C53.0806 28.2717 52.9591 28.1944 52.8312 28.1332C52.7001 28.072 52.5498 28.0431 52.3771 28.0431C52.2172 28.0431 52.0734 28.0753 51.9391 28.1397C51.8048 28.2041 51.6897 28.2911 51.5905 28.4006C51.4914 28.5101 51.4147 28.6389 51.3603 28.7871C51.306 28.9353 51.2772 29.0931 51.2772 29.2574V29.2703C51.2772 29.441 51.306 29.5988 51.3603 29.7502C51.4147 29.8984 51.4946 30.0304 51.5937 30.1399C51.6961 30.2527 51.8144 30.3396 51.9519 30.4008C52.0925 30.4652 52.246 30.4942 52.4123 30.4942C52.5786 30.4942 52.7384 30.462 52.8759 30.4008C53.0134 30.3396 53.1413 30.2559 53.2596 30.156C53.282 30.1303 53.3172 30.1109 53.3555 30.0916C53.3971 30.0723 53.4419 30.0626 53.4962 30.0626C53.6017 30.0626 53.6913 30.1013 53.7616 30.1754C53.8352 30.2494 53.8703 30.3396 53.8703 30.4459C53.8703 30.5619 53.8288 30.6521 53.7488 30.7197C53.5794 30.884 53.3875 31.016 53.1701 31.1159C52.9527 31.2157 52.6841 31.2641 52.3675 31.2641V31.2673Z" fill="white"/>
<path d="M58.0941 30.7809C58.0941 30.9033 58.0525 31.0031 57.9694 31.0901C57.8862 31.1771 57.7807 31.2157 57.656 31.2157C57.5313 31.2157 57.4322 31.1739 57.3459 31.0933C57.2595 31.0128 57.218 30.9065 57.218 30.7809V30.5844C57.0933 30.768 56.9366 30.9258 56.7511 31.0579C56.5657 31.19 56.3259 31.2576 56.0317 31.2576C55.5937 31.2576 55.2611 31.1255 55.0277 30.8614C54.7943 30.5973 54.6792 30.2398 54.6792 29.7856V27.7499C54.6792 27.6243 54.7208 27.518 54.8039 27.4343C54.887 27.3505 54.9894 27.3087 55.1109 27.3087C55.2324 27.3087 55.3411 27.3505 55.4242 27.4343C55.5073 27.518 55.5489 27.6243 55.5489 27.7499V29.5247C55.5489 29.8275 55.6192 30.0594 55.7599 30.2172C55.9006 30.375 56.1021 30.4524 56.3611 30.4524C56.62 30.4524 56.8279 30.3718 56.9846 30.2108C57.1412 30.0497 57.218 29.8146 57.218 29.5118V27.7499C57.218 27.6243 57.2595 27.518 57.3427 27.4343C57.4258 27.3505 57.5313 27.3087 57.656 27.3087C57.7807 27.3087 57.8798 27.3505 57.9662 27.4343C58.0525 27.518 58.0973 27.6243 58.0973 27.7499V30.7809H58.0941ZM56.5241 26.9028C56.4218 26.9028 56.3355 26.8899 56.2587 26.8674C56.182 26.8448 56.1021 26.7901 56.0221 26.7063L55.5329 26.2425C55.453 26.1684 55.4114 26.0976 55.4114 26.0235C55.4114 25.9913 55.4274 25.9558 55.4594 25.9236C55.4914 25.8882 55.5329 25.8592 55.5809 25.8334C55.6288 25.8077 55.6864 25.7851 55.7503 25.769C55.8111 25.7529 55.8718 25.7433 55.9294 25.7433C56.0733 25.7433 56.1884 25.8141 56.2747 25.9526L56.684 26.5904C56.6968 26.6161 56.7128 26.6419 56.7256 26.6709C56.7384 26.6999 56.7479 26.7257 56.7479 26.7514C56.7479 26.8545 56.6744 26.9028 56.5241 26.9028Z" fill="white"/>
<path d="M59.1812 27.7532C59.1812 27.6276 59.2227 27.5213 59.3027 27.4375C59.3826 27.3538 59.4881 27.3119 59.6128 27.3119C59.7375 27.3119 59.843 27.3538 59.9262 27.4375C60.0093 27.5213 60.0509 27.6276 60.0509 27.7532V27.94C60.1756 27.7628 60.329 27.605 60.5145 27.473C60.6999 27.3409 60.9397 27.2733 61.2371 27.2733C61.672 27.2733 62.0077 27.4053 62.2411 27.6694C62.4745 27.9336 62.5896 28.2879 62.5896 28.7388V30.7841C62.5896 30.9098 62.5481 31.0128 62.4681 31.0966C62.3882 31.1803 62.2827 31.219 62.158 31.219C62.0333 31.219 61.9278 31.1771 61.8446 31.0966C61.7615 31.0161 61.7199 30.9098 61.7199 30.7841V29.0094C61.7199 28.7034 61.6496 28.4715 61.5089 28.3136C61.3682 28.1526 61.1668 28.0753 60.9078 28.0753C60.6488 28.0753 60.4409 28.1558 60.2843 28.3201C60.1276 28.4843 60.0509 28.7195 60.0509 29.0223V30.7841C60.0509 30.9098 60.0093 31.0128 59.9262 31.0966C59.843 31.1803 59.7375 31.219 59.6128 31.219C59.4881 31.219 59.3922 31.1771 59.3059 31.0966C59.2227 31.0161 59.1812 30.9098 59.1812 30.7841V27.7532Z" fill="white"/>
<path d="M65.33 32.356C65.0582 32.356 64.8024 32.327 64.5626 32.269C64.326 32.211 64.0926 32.1273 63.8624 32.0146C63.6993 31.9534 63.6194 31.8374 63.6194 31.6667C63.6194 31.5701 63.6546 31.4863 63.7281 31.4122C63.8016 31.3414 63.888 31.3027 63.9871 31.3027C64.0351 31.3027 64.0862 31.3156 64.147 31.3381C64.3196 31.4348 64.5019 31.5089 64.6937 31.5636C64.8856 31.6184 65.0902 31.6441 65.3108 31.6441C65.6977 31.6441 65.9951 31.5475 66.2029 31.351C66.4076 31.1546 66.5131 30.8614 66.5131 30.4717V30.1754C66.3532 30.3847 66.1709 30.5522 65.9599 30.6843C65.7489 30.8163 65.4867 30.8808 65.1765 30.8808C64.9495 30.8808 64.7353 30.8389 64.5307 30.7584C64.3228 30.6778 64.1406 30.5587 63.9807 30.4073C63.8208 30.2559 63.6929 30.0691 63.597 29.8468C63.5011 29.6246 63.4531 29.3733 63.4531 29.0931V29.0802C63.4531 28.8 63.5011 28.5488 63.597 28.3233C63.6929 28.0978 63.8208 27.911 63.9807 27.7596C64.1406 27.6082 64.326 27.4891 64.5307 27.4085C64.7353 27.328 64.9527 27.2861 65.1765 27.2861C65.4963 27.2861 65.7617 27.3506 65.9727 27.4794C66.1837 27.6082 66.3596 27.7596 66.5099 27.94V27.7596C66.5099 27.6372 66.5514 27.5374 66.6346 27.4504C66.7177 27.3667 66.82 27.3248 66.9415 27.3248C67.063 27.3248 67.1718 27.3667 67.2549 27.4504C67.338 27.5342 67.3796 27.6404 67.3796 27.7661V30.4105C67.3796 31.0483 67.2197 31.5282 66.8968 31.8535C66.5546 32.1982 66.0367 32.3689 65.3364 32.3689L65.33 32.356ZM65.4036 30.1303C65.5506 30.1303 65.6945 30.1045 65.832 30.053C65.9695 30.0014 66.0878 29.9306 66.1869 29.8404C66.2893 29.7502 66.3692 29.6375 66.4267 29.5086C66.4875 29.3766 66.5163 29.2348 66.5163 29.0802V29.0673C66.5163 28.9127 66.4875 28.771 66.4267 28.639C66.366 28.5069 66.2861 28.3974 66.1869 28.304C66.0878 28.2106 65.9663 28.1397 65.832 28.0914C65.6945 28.0398 65.5538 28.0141 65.4036 28.0141C65.2533 28.0141 65.1094 28.0398 64.9783 28.0914C64.8504 28.1429 64.7353 28.2138 64.6362 28.304C64.5371 28.3974 64.4603 28.5069 64.406 28.6325C64.3516 28.7613 64.3228 28.9031 64.3228 29.0641V29.077C64.3228 29.2316 64.3516 29.3733 64.4092 29.5054C64.4667 29.6342 64.5435 29.747 64.6394 29.8372C64.7353 29.9306 64.8504 30.0014 64.9815 30.0497C65.1126 30.1013 65.2533 30.1271 65.4036 30.1271V30.1303Z" fill="white"/>
<path d="M72.7068 30.8679C72.6525 30.9806 72.5885 31.0708 72.5086 31.1449C72.4287 31.2158 72.3295 31.2544 72.2112 31.2544H72.1665C72.045 31.2544 71.9458 31.219 71.8691 31.1481C71.7892 31.0773 71.7252 30.9838 71.6709 30.8679L70.4047 27.9464C70.3951 27.9142 70.3855 27.8788 70.3727 27.8402C70.3599 27.8047 70.3535 27.7661 70.3535 27.7274C70.3535 27.6179 70.3951 27.518 70.4782 27.4343C70.5613 27.3506 70.6637 27.3087 70.7852 27.3087C70.9067 27.3087 70.9962 27.3377 71.0633 27.3989C71.1273 27.4601 71.1785 27.5342 71.2168 27.6276L72.1952 30.1657L73.1864 27.6147C73.2184 27.5374 73.2664 27.4665 73.3303 27.4053C73.3911 27.3409 73.4806 27.3119 73.5957 27.3119C73.7108 27.3119 73.8163 27.3506 73.8995 27.4311C73.9794 27.5116 74.021 27.6115 74.021 27.7306C74.021 27.7693 74.0146 27.8079 74.0018 27.8466C73.989 27.8852 73.9794 27.9175 73.9698 27.94L72.7036 30.8679H72.7068Z" fill="white"/>
<path d="M78.929 26.9189C78.929 27.1959 78.881 27.4117 78.7819 27.5728C78.6827 27.7338 78.4941 27.8305 78.2159 27.8691V30.7841C78.2159 30.9065 78.1744 31.0064 78.0912 31.0933C78.0081 31.1771 77.9026 31.219 77.7779 31.219C77.6532 31.219 77.554 31.1771 77.4677 31.0966C77.3814 31.016 77.3366 30.9097 77.3366 30.7841V30.5876C77.2119 30.7712 77.0552 30.9291 76.8698 31.0611C76.6843 31.1932 76.4413 31.2608 76.1504 31.2608C75.7123 31.2608 75.3798 31.1288 75.1464 30.8646C74.913 30.6005 74.7979 30.243 74.7979 29.7888V27.7532C74.7979 27.6275 74.8394 27.5213 74.9226 27.4375C75.0057 27.3538 75.108 27.3119 75.2295 27.3119C75.351 27.3119 75.4597 27.3538 75.5429 27.4375C75.626 27.5213 75.6676 27.6275 75.6676 27.7532V29.5279C75.6676 29.8307 75.7379 30.0626 75.8786 30.2204C76.0193 30.3783 76.2207 30.4556 76.4797 30.4556C76.7387 30.4556 76.9465 30.3751 77.1032 30.214C77.2599 30.053 77.3366 29.8178 77.3366 29.515V27.7532C77.3366 27.6275 77.3782 27.5213 77.4613 27.4375C77.5445 27.3538 77.65 27.3119 77.7747 27.3119C77.8226 27.3119 77.8674 27.3183 77.9122 27.3344C77.9889 27.328 78.0465 27.3183 78.088 27.299C78.1296 27.2797 78.1584 27.2539 78.1776 27.2185C78.1967 27.1863 78.2063 27.1444 78.2095 27.0961C78.2095 27.0478 78.2127 26.9962 78.2127 26.935V26.9125C78.2127 26.8159 78.2447 26.7353 78.3054 26.6709C78.3662 26.6065 78.4621 26.5743 78.5932 26.5743C78.6891 26.5743 78.7691 26.6065 78.8298 26.6709C78.8938 26.7353 78.9226 26.8159 78.9226 26.9125V26.9189H78.929Z" fill="white"/>
<path d="M81.1096 31.2673C80.8218 31.2673 80.5533 31.2158 80.307 31.1127C80.0608 31.0096 79.8466 30.8679 79.6676 30.6875C79.4885 30.5071 79.3478 30.2978 79.2455 30.0562C79.1464 29.8146 79.0952 29.5602 79.0952 29.2864V29.2735C79.0952 28.9997 79.1464 28.7388 79.2487 28.4972C79.351 28.2557 79.4917 28.0431 79.674 27.8627C79.8562 27.6823 80.0672 27.5374 80.3134 27.4311C80.5596 27.3248 80.8314 27.27 81.1224 27.27C81.2695 27.27 81.4166 27.2829 81.554 27.3119C81.5892 27.3119 81.634 27.3119 81.6915 27.3151C81.7491 27.3183 81.8067 27.3183 81.8674 27.3183C81.9282 27.3183 81.9793 27.3183 82.0209 27.3216C82.0624 27.3248 82.088 27.3248 82.0912 27.3248C82.1839 27.3248 82.2511 27.3151 82.2991 27.299C82.347 27.2829 82.3822 27.2572 82.4046 27.2217C82.427 27.1895 82.4397 27.1476 82.4429 27.0993C82.4461 27.051 82.4493 26.993 82.4493 26.9254V26.9028C82.4493 26.8062 82.4813 26.7257 82.5421 26.6613C82.6028 26.5968 82.7019 26.5646 82.8298 26.5646C82.9257 26.5646 83.0057 26.5968 83.0664 26.6613C83.1272 26.7257 83.1592 26.8062 83.1592 26.9028V26.9093C83.1592 27.167 83.1176 27.3731 83.0345 27.5277C82.9513 27.6823 82.7883 27.7886 82.5485 27.8369C82.7307 28.0205 82.8746 28.2331 82.9801 28.4747C83.0856 28.7163 83.14 28.9739 83.14 29.2509V29.2638C83.14 29.5344 83.0888 29.7921 82.9865 30.0304C82.8842 30.272 82.7403 30.4846 82.5612 30.665C82.3822 30.8453 82.168 30.9903 81.9186 31.0966C81.6692 31.2029 81.3974 31.2576 81.1064 31.2576L81.1096 31.2673ZM81.1224 30.5007C81.2983 30.5007 81.4581 30.4685 81.602 30.4041C81.7459 30.3396 81.8642 30.2527 81.9665 30.1432C82.0656 30.0336 82.1424 29.9048 82.1967 29.7599C82.2511 29.6117 82.2767 29.4571 82.2767 29.2928V29.2799C82.2767 29.1124 82.2479 28.9514 82.1903 28.8032C82.1328 28.6551 82.0528 28.523 81.9505 28.4103C81.8482 28.3008 81.7235 28.2106 81.5828 28.1461C81.4421 28.0817 81.2855 28.0495 81.1128 28.0495C80.9401 28.0495 80.7835 28.0817 80.6428 28.1461C80.5021 28.2106 80.3806 28.2975 80.2783 28.407C80.1792 28.5166 80.1024 28.6454 80.0481 28.7936C79.9937 28.9417 79.9681 29.0996 79.9681 29.2638V29.2767C79.9681 29.4474 79.9969 29.6053 80.0544 29.7502C80.112 29.8984 80.1919 30.0272 80.2943 30.1367C80.3966 30.2495 80.5213 30.3364 80.662 30.4008C80.8027 30.4653 80.9593 30.4975 81.1256 30.4975L81.1224 30.5007Z" fill="white"/>
<path d="M84.0288 27.7532C84.0288 27.6276 84.0704 27.5213 84.1503 27.4375C84.2302 27.3538 84.3358 27.3119 84.4605 27.3119C84.5852 27.3119 84.6907 27.3538 84.7738 27.4375C84.857 27.5213 84.8985 27.6276 84.8985 27.7532V27.94C85.0232 27.7628 85.1767 27.605 85.3621 27.473C85.5476 27.3409 85.7874 27.2733 86.0848 27.2733C86.5228 27.2733 86.8554 27.4053 87.0888 27.6694C87.3222 27.9336 87.4373 28.2879 87.4373 28.7388V30.7841C87.4373 30.9098 87.3957 31.0128 87.3158 31.0966C87.2358 31.1803 87.1303 31.219 87.0056 31.219C86.8809 31.219 86.7754 31.1771 86.6923 31.0966C86.6091 31.0161 86.5676 30.9098 86.5676 30.7841V29.0094C86.5676 28.7034 86.4972 28.4715 86.3565 28.3136C86.2159 28.1558 86.0144 28.0753 85.7554 28.0753C85.4964 28.0753 85.2886 28.1558 85.1319 28.3201C84.9753 28.4843 84.8985 28.7195 84.8985 29.0223V30.7841C84.8985 30.9098 84.857 31.0128 84.7738 31.0966C84.6907 31.1803 84.5852 31.219 84.4605 31.219C84.3358 31.219 84.2398 31.1771 84.1535 31.0966C84.0704 31.0161 84.0288 30.9098 84.0288 30.7841V27.7532Z" fill="white"/>
<path d="M91.9201 31.2447C91.7602 31.2447 91.6163 31.2254 91.482 31.1868C91.3478 31.1481 91.2327 31.0837 91.1335 31C91.0344 30.913 90.9609 30.797 90.9065 30.6553C90.8522 30.5136 90.8266 30.3364 90.8266 30.1238V28.1107H90.6827C90.5772 28.1107 90.4876 28.0753 90.4173 28.0012C90.3438 27.9303 90.3086 27.8402 90.3086 27.7339C90.3086 27.6276 90.3438 27.5374 90.4173 27.4665C90.4908 27.3957 90.5772 27.357 90.6827 27.357H90.8266V26.7031C90.8266 26.5807 90.8681 26.4809 90.9513 26.3939C91.0344 26.307 91.1399 26.2683 91.2646 26.2683C91.3893 26.2683 91.4853 26.3102 91.5716 26.3939C91.6547 26.4777 91.6963 26.5807 91.6963 26.7031V27.357H92.3805C92.4861 27.357 92.5756 27.3924 92.6491 27.4665C92.7227 27.5406 92.761 27.6276 92.761 27.7339C92.761 27.8402 92.7227 27.9303 92.6491 28.0012C92.5756 28.0753 92.4861 28.1107 92.3805 28.1107H91.6963V29.9886C91.6963 30.1593 91.7379 30.2784 91.8178 30.3558C91.8977 30.4331 92.016 30.4685 92.1631 30.4685C92.2175 30.4685 92.2622 30.4653 92.3006 30.4588C92.339 30.4524 92.3646 30.4492 92.3805 30.4492C92.4765 30.4492 92.5628 30.4846 92.6363 30.5555C92.7099 30.6263 92.7482 30.7101 92.7482 30.8131C92.7482 30.8937 92.7259 30.9677 92.6811 31.0257C92.6363 31.0869 92.582 31.1288 92.518 31.1513C92.4221 31.1835 92.3262 31.2093 92.2335 31.2286C92.1407 31.2447 92.0352 31.2544 91.9201 31.2544V31.2447Z" fill="white"/>
<path d="M94.6987 31.2608C94.5228 31.2608 94.3501 31.235 94.1871 31.1835C94.024 31.132 93.8801 31.0579 93.7586 30.958C93.6371 30.8582 93.538 30.7358 93.4645 30.5876C93.3909 30.4395 93.3525 30.2688 93.3525 30.0755V30.0626C93.3525 29.8532 93.3909 29.6729 93.4677 29.5183C93.5444 29.3637 93.6499 29.2348 93.7874 29.135C93.9249 29.0351 94.088 28.9578 94.283 28.9063C94.478 28.8547 94.6891 28.829 94.9193 28.829C95.1335 28.829 95.3222 28.8418 95.4788 28.8708C95.6355 28.8998 95.789 28.9385 95.9393 28.9868V28.8934C95.9393 28.6196 95.8593 28.4102 95.6995 28.2717C95.5396 28.13 95.3062 28.0624 94.9992 28.0624C94.8298 28.0624 94.6795 28.0753 94.542 28.101C94.4045 28.1268 94.2766 28.1654 94.1583 28.2138C94.1039 28.2266 94.0592 28.2363 94.0208 28.2363C93.9185 28.2363 93.8354 28.2009 93.7618 28.13C93.6915 28.0591 93.6531 27.9754 93.6531 27.8723C93.6531 27.7918 93.6755 27.7177 93.7202 27.6533C93.765 27.5921 93.8226 27.547 93.8897 27.5245C94.072 27.4568 94.2574 27.4021 94.4493 27.3602C94.6411 27.3183 94.8617 27.299 95.1111 27.299C95.6771 27.299 96.0959 27.4407 96.3709 27.7274C96.6427 28.0012 96.7802 28.3974 96.7802 28.9095V30.7938C96.7802 30.9162 96.7386 31.016 96.6587 31.0933C96.5788 31.1739 96.4764 31.2125 96.3581 31.2125C96.2398 31.2125 96.1311 31.1739 96.0512 31.0998C95.9712 31.0257 95.9329 30.9387 95.9329 30.8421V30.6971C95.805 30.8518 95.6387 30.9838 95.4373 31.0933C95.2358 31.2028 94.9896 31.2576 94.6955 31.2576L94.6987 31.2608ZM94.9001 26.7096C94.8042 26.7901 94.7179 26.8448 94.6379 26.8706C94.558 26.8964 94.4685 26.906 94.3693 26.906C94.315 26.906 94.2702 26.8931 94.2318 26.8706C94.1935 26.8481 94.1743 26.8094 94.1743 26.7611C94.1743 26.7128 94.2031 26.6548 94.2606 26.5872L94.737 25.9848C94.7882 25.9172 94.8457 25.8657 94.9097 25.8302C94.9704 25.7948 95.0536 25.7755 95.1527 25.7755H95.4117C95.514 25.7755 95.594 25.7948 95.6579 25.8302C95.7187 25.8657 95.7762 25.9172 95.8306 25.9848L96.3038 26.5872C96.3613 26.6548 96.3901 26.7128 96.3901 26.7611C96.3901 26.8094 96.3709 26.8448 96.3294 26.8706C96.2878 26.8964 96.2398 26.906 96.1823 26.906C96.08 26.906 95.9904 26.8931 95.9137 26.8706C95.8338 26.8448 95.7474 26.7933 95.6515 26.7096L95.2774 26.3842L94.9033 26.7096H94.9001ZM94.9449 30.6231C95.0888 30.6231 95.223 30.6037 95.3477 30.5651C95.4725 30.5264 95.578 30.4717 95.6675 30.3976C95.757 30.3267 95.8274 30.2398 95.8785 30.1399C95.9297 30.0401 95.9585 29.9273 95.9585 29.8017V29.5408C95.8497 29.4957 95.7187 29.4603 95.5748 29.4313C95.4277 29.4023 95.2678 29.3894 95.0951 29.3894C94.8074 29.3894 94.5868 29.4442 94.4333 29.5569C94.2798 29.6664 94.2031 29.8243 94.2031 30.0272V30.0401C94.2031 30.2237 94.2734 30.3654 94.4109 30.4685C94.5484 30.5683 94.7274 30.6198 94.9449 30.6198V30.6231ZM96.6491 25.9913C96.55 25.9913 96.4605 25.9784 96.3837 25.9558C96.307 25.9301 96.227 25.8785 96.1471 25.7948L95.6579 25.331C95.5748 25.2601 95.5364 25.186 95.5364 25.1152C95.5364 25.0829 95.5524 25.0475 95.5844 25.0153C95.6163 24.9799 95.6547 24.9509 95.7059 24.9251C95.757 24.8993 95.8114 24.8768 95.8753 24.8607C95.9361 24.8446 95.9968 24.8349 96.0544 24.8349C96.1983 24.8349 96.3134 24.9058 96.3997 25.0443L96.809 25.6821C96.8218 25.7078 96.8378 25.7336 96.8505 25.7626C96.8633 25.7916 96.8729 25.8173 96.8729 25.8431C96.8729 25.9462 96.7994 25.9945 96.6491 25.9945V25.9913Z" fill="white"/>
<path d="M97.8286 27.7532C97.8286 27.6276 97.8702 27.5213 97.9501 27.4375C98.0301 27.3538 98.1356 27.3119 98.2603 27.3119C98.385 27.3119 98.4905 27.3538 98.5736 27.4375C98.6568 27.5213 98.6983 27.6276 98.6983 27.7532V27.9336C98.7591 27.8466 98.8262 27.7628 98.8998 27.6855C98.9701 27.6082 99.0532 27.5374 99.1492 27.4762C99.2419 27.415 99.3474 27.3634 99.4657 27.328C99.584 27.2926 99.7151 27.2733 99.859 27.2733C100.134 27.2733 100.364 27.3345 100.556 27.4569C100.748 27.5792 100.895 27.7435 100.994 27.9464C101.148 27.7435 101.327 27.5792 101.534 27.4569C101.742 27.3345 101.988 27.2733 102.276 27.2733C102.698 27.2733 103.024 27.3989 103.258 27.6533C103.491 27.9078 103.606 28.2685 103.606 28.7356V30.7809C103.606 30.9065 103.565 31.0096 103.485 31.0934C103.405 31.1771 103.299 31.2158 103.175 31.2158C103.05 31.2158 102.945 31.1739 102.861 31.0934C102.778 31.0128 102.737 30.9065 102.737 30.7809V29.0062C102.737 28.7002 102.67 28.4682 102.535 28.3104C102.401 28.1526 102.212 28.0721 101.966 28.0721C101.72 28.0721 101.525 28.1526 101.378 28.3136C101.227 28.4747 101.154 28.7098 101.154 29.019V30.7809C101.154 30.9065 101.112 31.0096 101.029 31.0934C100.946 31.1771 100.844 31.2158 100.722 31.2158C100.601 31.2158 100.492 31.1739 100.409 31.0934C100.326 31.0128 100.284 30.9065 100.284 30.7809V28.9965C100.284 28.6905 100.217 28.4618 100.083 28.304C99.9485 28.1461 99.7599 28.0688 99.5137 28.0688C99.2675 28.0688 99.0724 28.1526 98.9253 28.3233C98.7783 28.494 98.7015 28.7259 98.7015 29.019V30.7809C98.7015 30.9065 98.6599 31.0096 98.5768 31.0934C98.4937 31.1771 98.3882 31.2158 98.2635 31.2158C98.1388 31.2158 98.0428 31.1739 97.9565 31.0934C97.8734 31.0128 97.8318 30.9065 97.8318 30.7809V27.75L97.8286 27.7532Z" fill="white"/>
</g>
<defs>
<radialGradient id="paint0_radial_586_3075" cx="0" cy="0" r="1" gradientUnits="userSpaceOnUse" gradientTransform="translate(21.8891 9.26008) scale(11.45 11.5344)">
<stop stop-color="#A7A9AC"/>
<stop offset="0.3" stop-color="#D1D3D4"/>
<stop offset="0.49" stop-color="#DFE0E1"/>
<stop offset="0.76" stop-color="#ECEDED"/>
<stop offset="1" stop-color="#F1F2F2"/>
</radialGradient>
<radialGradient id="paint1_radial_586_3075" cx="0" cy="0" r="1" gradientUnits="userSpaceOnUse" gradientTransform="translate(30.6282 14.2663) rotate(0.80589) scale(11.4884 11.573)">
<stop stop-color="#A7A9AC"/>
<stop offset="0.3" stop-color="#D1D3D4"/>
<stop offset="0.49" stop-color="#DFE0E1"/>
<stop offset="0.76" stop-color="#ECEDED"/>
<stop offset="1" stop-color="#F1F2F2"/>
</radialGradient>
<radialGradient id="paint2_radial_586_3075" cx="0" cy="0" r="1" gradientUnits="userSpaceOnUse" gradientTransform="translate(22.725 1.33906) scale(24.5084 24.6889)">
<stop offset="0.35" stop-color="#F1F2F2"/>
<stop offset="1" stop-color="white"/>
</radialGradient>
<radialGradient id="paint3_radial_586_3075" cx="0" cy="0" r="1" gradientUnits="userSpaceOnUse" gradientTransform="translate(3.65468 22.242) scale(8.59792 8.66126)">
<stop offset="0.3" stop-color="white"/>
<stop offset="1" stop-color="#D1D3D4"/>
</radialGradient>
<clipPath id="clip0_586_3075">
<rect width="110" height="33" fill="white"/>
</clipPath>
</defs>
</svg>
