<svg width="100" height="40" viewBox="0 0 100 40" fill="none" xmlns="http://www.w3.org/2000/svg">
<path d="M14.6632 0.952148H22.2097C22.7258 0.952148 23.2797 1.34266 23.4501 1.82366L36.5501 37.8508C36.7206 38.3318 36.4507 38.7175 35.9441 38.7175H28.5112C27.9999 38.7175 27.4459 38.327 27.2944 37.8365L24.7142 30.0596H11.4959L8.91566 37.8413C8.74996 38.327 8.21025 38.7223 7.69893 38.7223H0.654206C0.14763 38.7223 -0.126963 38.3365 0.0576771 37.8555L13.418 1.82842C13.5979 1.34742 14.1613 0.952148 14.6632 0.952148ZM22.6879 23.4352L18.1287 9.16243L13.4606 23.4352H22.6879Z" fill="white"/>
<path d="M72.1713 0.952148H85.3091C87.6337 0.952148 89.6032 1.22836 91.2223 1.77603C92.832 2.3237 94.1434 3.05234 95.1566 3.95243C96.1698 4.85727 96.8988 5.90975 97.3486 7.09081C97.7984 8.2814 98.0256 9.51961 98.0256 10.8054C98.0256 12.0151 97.8126 13.0818 97.377 14.0057C96.9509 14.9296 96.4349 15.7154 95.8573 16.3821C95.275 17.0393 94.6642 17.5632 94.0061 17.9394C93.3528 18.3157 92.7989 18.5585 92.3444 18.6776C93.0214 18.8252 93.7978 19.1062 94.6832 19.5015C95.5685 19.892 96.4017 20.4587 97.1876 21.1969C97.9783 21.935 98.6458 22.8637 99.1808 23.9733C99.7253 25.0829 99.9999 26.3974 99.9999 27.9023C99.9999 29.8691 99.6495 31.5312 98.9583 32.8884C98.2671 34.2505 97.2871 35.3601 96.0372 36.2316C94.7731 37.0983 93.2439 37.7317 91.4212 38.1222C89.5985 38.5223 87.5674 38.7128 85.3139 38.7128H72.176C71.6647 38.7128 71.2481 38.2985 71.2481 37.7841V1.88081C71.2434 1.37123 71.66 0.952148 72.1713 0.952148ZM84.5232 16.0726C85.1624 16.0726 85.792 16.0012 86.4075 15.8488C87.0277 15.6964 87.5674 15.463 88.0409 15.1392C88.5096 14.8201 88.893 14.3867 89.196 13.8391C89.4943 13.2961 89.6458 12.6199 89.6458 11.8293C89.6458 11.0007 89.4943 10.3054 89.196 9.75772C88.893 9.21005 88.5001 8.77668 88.0124 8.4576C87.5248 8.13853 86.9709 7.90993 86.3507 7.77659C85.7352 7.64324 85.1245 7.58133 84.5232 7.58133H79.5143V16.0726H84.5232ZM85.0298 32.155C85.6311 32.155 86.3034 32.1074 87.0561 32.0122C87.8041 31.9169 88.5048 31.6978 89.1392 31.3597C89.7784 31.0216 90.3086 30.5311 90.7347 29.8882C91.1703 29.2452 91.3833 28.3594 91.3833 27.226C91.3833 26.2021 91.175 25.3735 90.7678 24.7305C90.3512 24.0924 89.8304 23.5923 89.1913 23.2352C88.5522 22.8732 87.8562 22.6303 87.1035 22.5018C86.3507 22.3636 85.6595 22.3017 85.0203 22.3017H79.5048V32.155H85.0298Z" fill="white"/>
<path d="M55.578 26.5973C51.871 26.5973 48.8789 23.578 48.8789 19.8538C48.8789 16.1297 51.871 13.1104 55.578 13.1104C59.2803 13.1104 62.2771 16.1297 62.2771 19.8538C62.2771 23.578 59.2803 26.5973 55.578 26.5973Z" fill="#009FDA"/>
<path d="M63.0063 28.6693C60.98 30.6123 58.2814 31.8077 55.313 31.8077C49.0021 31.8077 43.889 26.4548 43.889 19.8542C43.889 13.2584 49.0021 7.90549 55.313 7.90549C58.1773 7.90549 60.8001 9.01512 62.8027 10.8343C63.1815 11.1772 63.7591 11.1867 64.1236 10.8248L68.1668 6.753C68.5266 6.3863 68.5313 5.79577 68.1668 5.44336C64.6491 2.07638 59.9243 0 54.707 0C43.8937 0 35.1162 8.8913 35.1162 19.8542C35.1162 30.8171 43.8937 39.7037 54.7023 39.7037C60.0189 39.7037 64.8338 37.5463 68.3609 34.0603C68.7207 33.6983 68.7065 33.1031 68.3514 32.7364L64.2988 28.6598C63.939 28.2978 63.3756 28.3169 63.0063 28.6693Z" fill="white"/>
</svg>
