<svg width="114" height="50" viewBox="0 0 114 50" fill="none" xmlns="http://www.w3.org/2000/svg">
<path d="M28.1656 6.2237C29.7167 6.2237 30.9717 4.96864 30.9717 3.41751C30.9717 1.86639 29.7167 0.611328 28.1656 0.611328C26.6144 0.611328 25.3594 1.86639 25.3594 3.41751C25.3594 4.96864 26.6209 6.2237 28.1656 6.2237Z" fill="white"/>
<path d="M17.8485 30.2567H5.18203C3.50862 30.2567 2.1184 29.0724 1.79659 27.4956C1.72579 27.1609 1.40398 26.8262 1.06286 26.8069C0.483603 26.7683 -0.00554836 27.2445 0.0395051 27.8174C0.296953 31.2221 1.85451 34.26 4.2166 36.4419C4.91171 37.0791 5.98656 37.0533 6.65592 36.3904L9.94482 33.1015C10.2538 32.7926 10.7429 32.7153 11.1033 32.9663C11.5732 33.2946 11.6182 33.9446 11.2321 34.3244L7.49263 38.0638C7.29311 38.2633 7.35747 38.598 7.61492 38.7203C8.01396 38.9069 8.42588 39.0679 8.84423 39.2159C10.1637 39.6729 11.6311 39.3382 12.6223 38.347L16.4068 34.5625C16.7157 34.2536 17.2049 34.1763 17.5653 34.4273C18.0351 34.7556 18.0802 35.4057 17.694 35.7918L14.1348 39.351C13.9224 39.5634 14.0704 39.9303 14.3729 39.9303H17.4044C18.3956 39.9303 19.3546 39.5377 20.0561 38.8297L22.8623 36.0235C23.1712 35.7146 23.6604 35.6374 24.0208 35.8884C24.4906 36.2166 24.5357 36.8667 24.1495 37.2528L22.0706 39.3382C21.8518 39.557 22.0063 39.9367 22.3152 39.9367H25.662C27.5736 39.9367 29.2213 41.4299 29.2534 43.3351C29.2792 45.0213 28.0949 46.4437 26.5116 46.772C26.1254 46.8557 25.8101 47.1775 25.8036 47.5765C25.7908 48.1365 26.2992 48.5806 26.8399 48.4711C29.2019 47.9884 30.9848 45.8967 30.9848 43.393C30.9719 36.1329 25.0956 30.2567 17.8485 30.2567Z" fill="white"/>
<path d="M12.8346 27.5404C13.047 27.5533 13.2529 27.5533 13.4653 27.5533H13.4718C19.9144 27.5533 25.2951 23.0351 26.6209 16.9979C26.7368 16.4573 26.3184 15.9553 25.7713 15.9553H17.7969C17.3142 15.9553 16.928 16.3414 16.928 16.8242V22.3786C16.928 24.4189 15.1645 26.0408 13.0792 25.8091C11.3542 25.6224 10.0155 24.1485 10.0155 22.3722V14.0823H16.928H24.5613C25.9194 14.0823 26.962 12.8466 26.6982 11.5078C25.4431 5.00084 19.496 0.160818 12.5192 0.643533C5.87704 1.1005 0.489937 6.48761 0.0329667 13.1298C-0.494802 20.7824 5.38145 27.1929 12.8346 27.5404ZM13.1435 2.35556C15.2031 2.16248 16.928 3.77796 16.928 5.7925V12.2094H10.0155V5.88904C10.0155 4.09334 11.3542 2.51647 13.1435 2.35556Z" fill="white"/>
<path d="M56.8518 9.4485C55.8799 8.46376 54.5605 7.97461 52.9 7.97461C51.4969 7.97461 50.2804 8.35435 49.2571 9.11382C48.2337 9.87329 47.5515 10.8838 47.2104 12.1388C47.0237 12.8146 46.9336 13.6449 46.9336 14.6296C46.9336 15.4599 47.0366 16.2451 47.2361 16.9917C47.5901 18.382 48.2788 19.4697 49.3086 20.2678C50.3319 21.0658 51.6256 21.4585 53.1831 21.4585C54.2194 21.4585 55.1655 21.2589 56.0408 20.8599C56.9097 20.4608 57.6306 19.9138 58.1841 19.2187C58.2484 19.135 58.2871 19.032 58.2871 18.9162C58.2871 18.8132 58.2356 18.7102 58.1326 18.6072L56.6844 17.2106C56.6008 17.1269 56.5042 17.0818 56.4077 17.0818C56.2918 17.0818 56.1824 17.1398 56.0794 17.2621C55.4873 17.9893 54.6313 18.382 53.5178 18.4334C52.8034 18.4334 52.1984 18.2918 51.7028 18.0151C51.2008 17.7383 50.8725 17.3328 50.6988 16.8115C50.628 16.6442 50.57 16.3803 50.5186 16.0263C50.5186 15.9233 50.5701 15.8718 50.673 15.8718H58.4673C58.7569 15.8718 58.8985 15.7302 58.8985 15.4406C58.8663 14.7648 58.8148 14.1469 58.744 13.587C58.4544 11.8106 57.8301 10.4332 56.8518 9.4485ZM55.0368 13.3617H50.7181C50.6151 13.3617 50.57 13.3102 50.5894 13.2072C50.6087 13.1043 50.6602 12.8919 50.7438 12.5701C50.879 12.0938 51.13 11.7269 51.4904 11.4695C51.8573 11.2056 52.3078 11.0769 52.8485 11.0769C53.4213 11.0769 53.8976 11.2185 54.2709 11.5081C54.6442 11.7977 54.9081 12.1839 55.0561 12.6795C55.1269 12.879 55.1591 13.0785 55.1591 13.2652C55.1655 13.3295 55.1204 13.3617 55.0368 13.3617Z" fill="white"/>
<path d="M71.1917 8.57282C70.3293 8.19309 69.3445 8 68.2439 8C67.2463 8 66.3324 8.15447 65.515 8.46984C64.6912 8.78522 64.0347 9.21644 63.5326 9.77639C63.0306 10.3363 62.741 10.9607 62.6573 11.6558C62.638 11.7587 62.6702 11.836 62.7474 11.8939C62.8247 11.9518 62.9276 11.9904 63.0628 12.0098L65.8819 12.3637C66.12 12.3831 66.2873 12.2672 66.3903 12.0355C66.5062 11.733 66.7314 11.4949 67.0661 11.3275C67.3944 11.1602 67.8192 11.0765 68.3212 11.0765C68.9777 11.0765 69.4861 11.231 69.8337 11.5463C70.1812 11.8617 70.355 12.2929 70.355 12.8529V13.3871C70.355 13.4901 70.3035 13.5416 70.2006 13.5416H67.6325C65.9398 13.5416 64.6332 13.902 63.7193 14.6229C62.8054 15.3437 62.3484 16.3542 62.3484 17.6543C62.3484 18.9094 62.7474 19.8555 63.5455 20.4991C64.3372 21.1427 65.3927 21.4645 66.6928 21.4645C68.2311 21.4645 69.396 21.0333 70.1748 20.1709C70.2263 20.1194 70.2649 20.1001 70.3035 20.1065C70.3357 20.1129 70.355 20.1516 70.355 20.2224V20.8338C70.355 21.1234 70.4966 21.265 70.7863 21.265H73.5023C73.792 21.265 73.9336 21.1234 73.9336 20.8338V12.3444C73.9336 11.5335 73.689 10.7933 73.2127 10.1368C72.7235 9.47389 72.0542 8.95256 71.1917 8.57282ZM70.355 16.7146C70.355 17.3261 70.0976 17.8216 69.5891 18.2143C69.0807 18.6069 68.4628 18.7999 67.7355 18.7999C67.1948 18.7999 66.7572 18.6712 66.4289 18.4073C66.1007 18.1435 65.9334 17.783 65.9334 17.3261C65.9334 16.7983 66.1522 16.3928 66.5963 16.1096C67.0339 15.82 67.6389 15.6784 68.3984 15.6784H70.2006C70.3035 15.6784 70.355 15.7299 70.355 15.8329V16.7146Z" fill="white"/>
<path d="M78.7606 21.2586H81.4767C81.7663 21.2586 81.9079 21.117 81.9079 20.8274V14.0243C81.9079 13.3614 82.1203 12.8336 82.5451 12.4346C82.9699 12.0355 83.4848 11.8103 84.0962 11.7588C84.3665 11.7266 84.5596 11.7073 84.6819 11.7073C84.9007 11.7073 85.1453 11.7395 85.4221 11.8103C85.5894 11.8425 85.7117 11.8425 85.7889 11.8103C85.8662 11.7781 85.9112 11.6816 85.9305 11.5335L86.4132 8.86893C86.4647 8.61792 86.3875 8.43771 86.188 8.33473C85.834 8.13521 85.3835 8.03223 84.8428 8.03223C83.6907 8.03223 82.7768 8.52138 82.101 9.50612C82.0495 9.55761 82.0045 9.57692 81.9723 9.55761C81.9401 9.5383 81.9208 9.49968 81.9208 9.42888V8.64367C81.9208 8.35404 81.7792 8.21244 81.4896 8.21244H78.7735C78.4838 8.21244 78.3423 8.35404 78.3423 8.64367V20.8338C78.3229 21.117 78.471 21.2586 78.7606 21.2586Z" fill="white"/>
<path d="M97.1682 8.20664H94.8834C94.7804 8.20664 94.7289 8.15515 94.7289 8.05217V5.18806C94.7289 4.89843 94.5873 4.75684 94.2977 4.75684H91.7039C91.4143 4.75684 91.2727 4.89843 91.2727 5.18806V8.05861C91.2727 8.16159 91.2212 8.21308 91.1182 8.21308H89.8245C89.5349 8.21308 89.3933 8.35467 89.3933 8.6443V10.6524C89.3933 10.942 89.5349 11.0836 89.8245 11.0836H91.1182C91.2212 11.0836 91.2727 11.1351 91.2727 11.2381V17.8931C91.292 19.1804 91.646 20.0621 92.3411 20.532C93.0362 21.0083 94.0853 21.24 95.4884 21.24C95.778 21.24 96.2414 21.2206 96.8851 21.1885C97.1747 21.1563 97.3163 21.0018 97.3163 20.7315V18.5496C97.3163 18.26 97.1747 18.1184 96.8851 18.1184H96.1771C95.6686 18.1184 95.3018 17.9897 95.07 17.7258C94.8448 17.4619 94.7289 17.05 94.7289 16.4965V11.2381C94.7289 11.1351 94.7804 11.0836 94.8834 11.0836H97.1682C97.4579 11.0836 97.5995 10.942 97.5995 10.6524V8.6443C97.5995 8.34824 97.4579 8.20664 97.1682 8.20664Z" fill="white"/>
<path d="M108.47 8.00712C107.112 8.00712 106.089 8.4834 105.4 9.42952C105.368 9.48101 105.329 9.49388 105.297 9.48101C105.265 9.4617 105.246 9.42308 105.246 9.35229V5.18806C105.246 4.89843 105.104 4.75684 104.814 4.75684H102.098C101.809 4.75684 101.667 4.89843 101.667 5.18806V20.8345C101.667 21.1241 101.809 21.2657 102.098 21.2657H104.814C105.104 21.2657 105.246 21.1241 105.246 20.8345V13.3685C105.246 12.6927 105.439 12.1392 105.831 11.7144C106.217 11.2896 106.726 11.0772 107.357 11.0772C107.981 11.0772 108.483 11.2896 108.856 11.7144C109.23 12.1392 109.416 12.6862 109.416 13.3685V20.8345C109.416 21.1241 109.558 21.2657 109.847 21.2657H112.563C112.853 21.2657 112.995 21.1241 112.995 20.8345V12.6283C112.995 11.2059 112.583 10.0796 111.753 9.24931C110.916 8.41904 109.822 8.00712 108.47 8.00712Z" fill="white"/>
<path d="M58.3385 26.2786H55.6224C55.3328 26.2786 55.1912 26.4202 55.1912 26.7098V27.1411C55.1912 27.2119 55.1719 27.2505 55.1397 27.2698C55.1075 27.2891 55.0625 27.2698 55.011 27.2183C54.303 26.4588 53.3118 26.0791 52.0375 26.0791C50.9176 26.0791 49.9392 26.3945 49.0897 27.0188C48.2401 27.6431 47.6415 28.4734 47.2875 29.5096C46.985 30.3399 46.8306 31.4147 46.8306 32.7341C46.8306 33.9699 46.9593 34.9804 47.2103 35.7527C47.5965 36.937 48.253 37.7994 49.1798 38.3336C50.1002 38.8678 51.1171 39.1317 52.2112 39.1317C53.447 39.1317 54.3802 38.7906 55.0045 38.1148C55.056 38.0633 55.0947 38.044 55.1333 38.0504C55.1655 38.0569 55.1848 38.0891 55.1848 38.1405C55.1848 39.1896 54.8951 39.9491 54.3094 40.4254C53.7237 40.9017 52.8935 41.1334 51.8057 41.1334C51.4003 41.1334 50.8854 41.0883 50.2546 41.0047C50.1195 40.9725 50.0036 40.9918 49.9135 41.069C49.817 41.1463 49.7719 41.2492 49.7719 41.3844L49.6689 43.7465C49.6689 44.0361 49.7977 44.1841 50.0487 44.2035C50.7631 44.2871 51.3938 44.3322 51.9538 44.3322C53.949 44.3322 55.5838 43.8559 56.8517 42.9098C58.1197 41.9637 58.7569 40.3803 58.7569 38.1599V26.7163C58.7697 26.4267 58.6281 26.2786 58.3385 26.2786ZM54.9852 34.7873C54.8501 35.2314 54.6055 35.5854 54.2515 35.8686C53.8975 36.1453 53.447 36.2869 52.9063 36.2869C52.3786 36.2869 51.928 36.1453 51.5483 35.8686C51.1686 35.5918 50.8982 35.2185 50.7502 34.7615C50.5443 34.3561 50.4413 33.6803 50.4413 32.7277C50.4413 31.8652 50.5571 31.1766 50.7953 30.6681C50.9626 30.2111 51.2265 29.8443 51.5805 29.5611C51.9345 29.2843 52.3657 29.1427 52.8742 29.1427C53.4019 29.1427 53.8396 29.2843 54.1936 29.5611C54.5476 29.8378 54.805 30.2047 54.9531 30.6681C55.0367 30.9256 55.0947 31.1959 55.1333 31.4791C55.1655 31.7687 55.1848 32.1742 55.1848 32.6955C55.1912 33.5902 55.1204 34.2788 54.9852 34.7873Z" fill="white"/>
<path d="M71.1917 26.6519C70.3293 26.2722 69.3445 26.0791 68.2439 26.0791C67.2463 26.0791 66.3324 26.2336 65.515 26.5489C64.6912 26.8643 64.0347 27.2955 63.5326 27.8555C63.0306 28.4154 62.741 29.0398 62.6573 29.7349C62.638 29.8378 62.6702 29.9151 62.7474 29.9794C62.8247 30.0374 62.9276 30.076 63.0628 30.0953L65.8819 30.4493C66.12 30.4686 66.2873 30.3592 66.3903 30.121C66.5062 29.8185 66.7314 29.5804 67.0661 29.4131C67.3944 29.2457 67.8192 29.162 68.3212 29.162C68.9777 29.162 69.4861 29.3165 69.8337 29.6319C70.1812 29.9473 70.355 30.3785 70.355 30.9384V31.4726C70.355 31.5756 70.3035 31.6271 70.2006 31.6271H67.6325C65.9398 31.6271 64.6332 31.9875 63.7193 32.7084C62.8054 33.4292 62.3484 34.4397 62.3484 35.7463C62.3484 37.0013 62.7474 37.9475 63.5455 38.5911C64.3372 39.2347 65.3927 39.5565 66.6928 39.5565C68.2311 39.5565 69.396 39.1253 70.1748 38.2628C70.2263 38.2113 70.2649 38.192 70.3035 38.1985C70.3357 38.2049 70.355 38.2435 70.355 38.3143V38.9258C70.355 39.2154 70.4966 39.357 70.7863 39.357H73.5023C73.792 39.357 73.9336 39.2154 73.9336 38.9258V30.4235C73.9336 29.6126 73.689 28.8724 73.2127 28.2159C72.7235 27.553 72.0542 27.0317 71.1917 26.6519ZM70.355 34.7873C70.355 35.3987 70.0976 35.8943 69.5891 36.2869C69.0807 36.6795 68.4628 36.8726 67.7355 36.8726C67.1948 36.8726 66.7572 36.7439 66.4289 36.48C66.1007 36.2161 65.9334 35.8557 65.9334 35.3987C65.9334 34.8774 66.1522 34.4655 66.5963 34.1823C67.0339 33.8927 67.6389 33.7511 68.3984 33.7511H70.2006C70.3035 33.7511 70.355 33.8025 70.355 33.9055V34.7873Z" fill="white"/>
<path d="M85.1324 26.0791C83.7744 26.0791 82.751 26.5554 82.0623 27.5015C82.0302 27.553 81.9915 27.5659 81.9594 27.553C81.9272 27.5337 81.9079 27.4951 81.9079 27.4243V26.7163C81.9079 26.4267 81.7663 26.2851 81.4766 26.2851H78.7606C78.4709 26.2851 78.3293 26.4267 78.3293 26.7163V38.9065C78.3293 39.1961 78.4709 39.3377 78.7606 39.3377H81.4766C81.7663 39.3377 81.9079 39.1961 81.9079 38.9065V31.4405C81.9079 30.7647 82.101 30.2111 82.4936 29.7928C82.8797 29.368 83.3882 29.1556 84.0189 29.1556C84.6433 29.1556 85.1453 29.368 85.5186 29.7928C85.8919 30.2176 86.0785 30.7647 86.0785 31.4405V38.9065C86.0785 39.1961 86.2201 39.3377 86.5098 39.3377H89.2258C89.5155 39.3377 89.6571 39.1961 89.6571 38.9065V30.7003C89.6571 29.2779 89.2451 28.1516 88.4149 27.3213C87.5782 26.491 86.484 26.0791 85.1324 26.0791Z" fill="white"/>
<path d="M96.7884 29.1689H94.0723C93.7827 29.1689 93.6411 29.3105 93.6411 29.6002V38.9069C93.6411 39.1966 93.7891 39.3381 94.0723 39.3381H96.7884C97.078 39.3381 97.2196 39.1966 97.2196 38.9069V29.6002C97.2196 29.3105 97.078 29.1689 96.7884 29.1689Z" fill="white"/>
<path d="M95.4176 23.6592C94.7739 23.6592 94.2526 23.8587 93.8407 24.2577C93.4352 24.6568 93.2292 25.1717 93.2292 25.796C93.2292 26.4203 93.4352 26.9352 93.8407 27.3343C94.2462 27.7333 94.7739 27.9328 95.4176 27.9328C96.074 27.9328 96.6083 27.7397 97.0073 27.3471C97.4063 26.9545 97.6059 26.4396 97.6059 25.796C97.6059 25.1524 97.4063 24.6375 97.0073 24.2449C96.6083 23.8523 96.074 23.6592 95.4176 23.6592Z" fill="white"/>
<path d="M110.742 27.096C109.719 26.4202 108.528 26.0791 107.177 26.0791C105.825 26.0791 104.647 26.4073 103.649 27.0703C102.652 27.7332 101.95 28.6343 101.538 29.7864C101.249 30.6166 101.107 31.5949 101.107 32.7341C101.107 33.8862 101.249 34.8838 101.538 35.7334C101.963 36.9177 102.671 37.8509 103.656 38.5267C104.647 39.2025 105.818 39.5436 107.177 39.5436C108.515 39.5436 109.693 39.2218 110.723 38.5782C111.746 37.9346 112.435 37.0464 112.795 35.9136C112.847 35.7978 112.885 35.5982 112.924 35.3279C112.943 35.2121 112.918 35.1091 112.86 35.0254C112.802 34.9418 112.705 34.8838 112.57 34.8452L109.905 34.4397C109.79 34.4204 109.68 34.459 109.577 34.5556C109.474 34.6521 109.416 34.7294 109.397 34.7937L109.371 34.9224C109.217 35.3987 108.946 35.772 108.547 36.0552C108.148 36.332 107.691 36.4736 107.164 36.4736C106.623 36.4736 106.16 36.332 105.78 36.0423C105.4 35.7527 105.13 35.3537 104.982 34.8516C104.814 34.3432 104.731 33.6481 104.731 32.7663C104.731 31.8846 104.821 31.1894 105.008 30.681C105.162 30.2047 105.419 29.8314 105.793 29.5611C106.166 29.2908 106.623 29.1556 107.164 29.1556C107.724 29.1556 108.206 29.2972 108.612 29.5868C109.017 29.8765 109.281 30.2369 109.397 30.681L109.474 31.035C109.506 31.2409 109.629 31.3375 109.828 31.3375L109.957 31.3117L112.622 30.9063C112.879 30.8548 113.001 30.7196 113.001 30.5008V30.4493C112.969 30.1597 112.898 29.9022 112.795 29.6641C112.448 28.6278 111.766 27.7718 110.742 27.096Z" fill="white"/>
<path d="M39.5256 49.0889C39.1845 49.0889 38.9077 48.8122 38.9077 48.4711V0.617876C38.9077 0.276757 39.1845 0 39.5256 0C39.8667 0 40.1435 0.276757 40.1435 0.617876V48.4711C40.1435 48.8122 39.8667 49.0889 39.5256 49.0889Z" fill="white"/>
</svg>
