<svg width="110" height="50" viewBox="0 0 110 50" fill="none" xmlns="http://www.w3.org/2000/svg">
<path d="M47.4911 35.5712C47.4814 35.5849 47.4677 35.5954 47.4519 35.601C47.436 35.6066 47.4188 35.6071 47.4027 35.6025C47.3865 35.5978 47.3722 35.5882 47.3618 35.5751C47.3513 35.5619 47.3452 35.5458 47.3444 35.529C47.2747 34.2271 47.2289 27.4777 53.1293 21.1317C56.7323 17.1528 57.4456 15.156 57.5794 14.4171C57.5831 14.3997 57.5923 14.3839 57.6056 14.3722C57.619 14.3604 57.6358 14.3533 57.6535 14.3518C57.6712 14.3504 57.6889 14.3547 57.704 14.3642C57.7191 14.3736 57.7307 14.3877 57.7371 14.4043C58.2982 16.0142 60.0291 23.2825 50.1461 33.1655C50.1461 33.1655 55.5772 24.1809 56.3271 19.1477C56.3274 19.1402 56.3252 19.1328 56.3207 19.1268C56.3163 19.1207 56.3099 19.1163 56.3026 19.1144C56.2953 19.1125 56.2876 19.1131 56.2807 19.1162C56.2738 19.1192 56.2682 19.1245 56.2648 19.1312C55.6267 20.6861 51.9137 29.469 47.4911 35.5712Z" fill="#009D44"/>
<path d="M14.0343 18.5527H12.3382L7.97243 29.644L3.66718 18.5527H0.498746C0.363834 18.5606 0.237056 18.6198 0.144345 18.7181C0.0516348 18.8165 0 18.9465 0 19.0817C0 19.2168 0.0516348 19.3468 0.144345 19.4452C0.237056 19.5435 0.363834 19.6027 0.498746 19.6107H1.13867L6.4964 33.412C6.54893 33.5458 6.64052 33.6606 6.75924 33.7415C6.87797 33.8224 7.01831 33.8657 7.16199 33.8657C7.30566 33.8657 7.44601 33.8224 7.56473 33.7415C7.68345 33.6606 7.77505 33.5458 7.82758 33.412L8.64169 31.3456L13.2623 19.6107H14.0416C14.1137 19.6149 14.1859 19.6044 14.2537 19.5797C14.3216 19.555 14.3837 19.5168 14.4363 19.4672C14.4888 19.4177 14.5307 19.3579 14.5593 19.2916C14.5879 19.2253 14.6027 19.1539 14.6027 19.0817C14.6027 19.0095 14.5879 18.938 14.5593 18.8717C14.5307 18.8054 14.4888 18.7456 14.4363 18.6961C14.3837 18.6466 14.3216 18.6083 14.2537 18.5836C14.1859 18.559 14.1137 18.5484 14.0416 18.5527H14.0343Z" fill="white"/>
<path d="M109.175 32.8116H108.542L103.184 19.0083C103.132 18.8746 103.04 18.7598 102.922 18.6789C102.803 18.598 102.663 18.5547 102.519 18.5547C102.375 18.5547 102.235 18.598 102.116 18.6789C101.997 18.7598 101.906 18.8746 101.853 19.0083L101.039 21.0748L96.4186 32.8097H95.6374C95.4974 32.8097 95.3631 32.8654 95.264 32.9644C95.165 33.0634 95.1094 33.1977 95.1094 33.3378C95.1094 33.4778 95.165 33.6122 95.264 33.7112C95.3631 33.8102 95.4974 33.8659 95.6374 33.8659H97.3353L101.701 22.7745L106.006 33.8659H109.175C109.315 33.8659 109.449 33.8102 109.548 33.7112C109.647 33.6122 109.703 33.4778 109.703 33.3378C109.703 33.1977 109.647 33.0634 109.548 32.9644C109.449 32.8654 109.315 32.8097 109.175 32.8097V32.8116Z" fill="white"/>
<path d="M22.5631 19.6097C22.698 19.6018 22.8248 19.5426 22.9175 19.4443C23.0102 19.3459 23.0619 19.2159 23.0619 19.0807C23.0619 18.9456 23.0102 18.8156 22.9175 18.7172C22.8248 18.6189 22.698 18.5597 22.5631 18.5518H19.8127C19.7432 18.5518 19.6744 18.5655 19.6102 18.5921C19.546 18.6188 19.4877 18.6578 19.4387 18.7071C19.3896 18.7563 19.3508 18.8147 19.3243 18.879C19.2979 18.9433 19.2844 19.0122 19.2847 19.0817V32.7089H18.7566C18.6165 32.7089 18.4822 32.7645 18.3832 32.8635C18.2842 32.9626 18.2285 33.0969 18.2285 33.2369C18.2285 33.377 18.2842 33.5113 18.3832 33.6103C18.4822 33.7094 18.6165 33.765 18.7566 33.765H22.5594C22.6995 33.765 22.8338 33.7094 22.9328 33.6103C23.0319 33.5113 23.0875 33.377 23.0875 33.2369C23.0875 33.0969 23.0319 32.9626 22.9328 32.8635C22.8338 32.7645 22.6995 32.7089 22.5594 32.7089H22.0405V19.6097H22.5631Z" fill="white"/>
<path d="M91.3144 18.5518H81.7156C81.5807 18.5597 81.4539 18.6189 81.3612 18.7172C81.2685 18.8156 81.2168 18.9456 81.2168 19.0807C81.2168 19.2159 81.2685 19.3459 81.3612 19.4443C81.4539 19.5426 81.5807 19.6018 81.7156 19.6097H82.339V32.7089H81.7156C81.5755 32.7089 81.4412 32.7645 81.3422 32.8635C81.2431 32.9626 81.1875 33.0969 81.1875 33.2369C81.1875 33.377 81.2431 33.5113 81.3422 33.6103C81.4412 33.7094 81.5755 33.765 81.7156 33.765H91.0797C91.2479 33.765 91.4093 33.6982 91.5283 33.5792C91.6473 33.4602 91.7141 33.2988 91.7141 33.1306V31.9791C91.7141 31.839 91.6585 31.7047 91.5594 31.6057C91.4604 31.5067 91.3261 31.451 91.186 31.451C91.046 31.451 90.9116 31.5067 90.8126 31.6057C90.7136 31.7047 90.6579 31.839 90.6579 31.9791V32.5292H85.0857V26.5719H88.1551V27.2008C88.1551 27.3408 88.2107 27.4751 88.3098 27.5742C88.4088 27.6732 88.5431 27.7288 88.6832 27.7288C88.8232 27.7288 88.9575 27.6732 89.0566 27.5742C89.1556 27.4751 89.2113 27.3408 89.2113 27.2008V24.7034C89.2113 24.5634 89.1556 24.4291 89.0566 24.33C88.9575 24.231 88.8232 24.1754 88.6832 24.1754C88.5431 24.1754 88.4088 24.231 88.3098 24.33C88.2107 24.4291 88.1551 24.5634 88.1551 24.7034V25.3324H85.0857V19.7931H90.6579V20.3432C90.6579 20.4832 90.7136 20.6175 90.8126 20.7166C90.9116 20.8156 91.046 20.8712 91.186 20.8712C91.3261 20.8712 91.4604 20.8156 91.5594 20.7166C91.6585 20.6175 91.7141 20.4832 91.7141 20.3432V18.9551C91.7143 18.9024 91.7042 18.8502 91.6842 18.8013C91.6643 18.7525 91.6349 18.7081 91.5978 18.6707C91.5607 18.6332 91.5165 18.6034 91.4679 18.583C91.4193 18.5626 91.3671 18.552 91.3144 18.5518Z" fill="white"/>
<path d="M62.9607 32.9388H62.0329L57.9789 22.6523C57.6276 23.7714 57.1785 24.8575 56.6367 25.8978L59.686 33.7639H62.9534C63.0628 33.7639 63.1678 33.7204 63.2451 33.643C63.3225 33.5657 63.366 33.4607 63.366 33.3513C63.366 33.2419 63.3225 33.137 63.2451 33.0596C63.1678 32.9822 63.0628 32.9388 62.9534 32.9388H62.9607Z" fill="white"/>
<path d="M43.3961 18.5519H41.8779C41.8038 18.5523 41.7329 18.5821 41.6807 18.6347C41.6285 18.6872 41.5992 18.7583 41.5992 18.8324V29.4672L32.4001 18.5977V18.5592H30.0311C29.8974 18.5579 29.7677 18.6055 29.6665 18.6929C29.5652 18.7803 29.4993 18.9016 29.481 19.0341C29.4736 19.1077 29.4817 19.1821 29.5047 19.2524C29.5278 19.3227 29.5653 19.3874 29.6149 19.4423C29.6645 19.4972 29.725 19.5412 29.7926 19.5713C29.8601 19.6014 29.9333 19.617 30.0073 19.6172H30.66V32.7163H30.0256C29.8921 32.715 29.7627 32.7623 29.6615 32.8493C29.5603 32.9363 29.4942 33.0572 29.4755 33.1894C29.4678 33.263 29.4757 33.3375 29.4986 33.4079C29.5216 33.4784 29.5591 33.5432 29.6087 33.5982C29.6583 33.6532 29.719 33.6971 29.7867 33.7271C29.8544 33.7571 29.9277 33.7726 30.0018 33.7724H31.905V22.2209L41.3443 33.4681C41.456 33.602 41.6065 33.6981 41.7749 33.7432C41.9434 33.7883 42.1218 33.7801 42.2854 33.7199C42.4491 33.6596 42.5902 33.5502 42.6892 33.4067C42.7883 33.2631 42.8405 33.0924 42.8387 32.918V19.6098H43.4273C43.5012 19.6097 43.5743 19.5941 43.6418 19.564C43.7093 19.5338 43.7697 19.4899 43.8191 19.4349C43.8685 19.3799 43.9059 19.3152 43.9287 19.2449C43.9515 19.1746 43.9594 19.1003 43.9517 19.0268C43.9333 18.8933 43.8666 18.7712 43.7642 18.6837C43.6618 18.5962 43.5308 18.5493 43.3961 18.5519Z" fill="white"/>
<path d="M77.3519 18.5518H63.5065C63.4458 18.5518 63.3875 18.5759 63.3445 18.6189C63.3015 18.6619 63.2773 18.7202 63.2773 18.781V20.3395C63.2773 20.4796 63.333 20.6139 63.432 20.7129C63.531 20.8119 63.6654 20.8676 63.8054 20.8676C63.9455 20.8676 64.0798 20.8119 64.1788 20.7129C64.2778 20.6139 64.3335 20.4796 64.3335 20.3395V19.7894H69.0568V32.7052H68.3839C68.2438 32.7052 68.1095 32.7608 68.0105 32.8599C67.9114 32.9589 67.8558 33.0932 67.8558 33.2333C67.8558 33.3733 67.9114 33.5076 68.0105 33.6067C68.1095 33.7057 68.2438 33.7613 68.3839 33.7613H71.2993C71.4327 33.7613 71.5607 33.7085 71.6552 33.6143C71.7497 33.5201 71.803 33.3923 71.8035 33.2589V19.7931H76.525V20.3432C76.525 20.4832 76.5806 20.6175 76.6797 20.7166C76.7787 20.8156 76.913 20.8712 77.0531 20.8712C77.1931 20.8712 77.3274 20.8156 77.4265 20.7166C77.5255 20.6175 77.5811 20.4832 77.5811 20.3432V18.7846C77.5816 18.7542 77.576 18.724 77.5647 18.6958C77.5534 18.6676 77.5366 18.6419 77.5153 18.6202C77.494 18.5985 77.4685 18.5813 77.4405 18.5696C77.4124 18.5578 77.3823 18.5518 77.3519 18.5518Z" fill="white"/>
<path d="M20.1857 4.99617L19.929 10.7426C19.8868 11.6979 20.3855 11.7273 21.1978 11.8703V12.237H18.0605V11.8703C18.794 11.7273 19.245 11.6979 19.2872 10.7426L19.5586 4.75414C19.6008 3.79884 19.102 3.7695 18.3613 3.62648V3.25977H21.427C21.4838 3.58798 21.6837 3.94369 21.8689 4.35992L24.1499 9.66448L26.2035 4.35992C26.3633 4.00499 26.4922 3.6369 26.5885 3.25977H29.8395V3.62648C29.1061 3.7695 28.6275 3.79884 28.6715 4.75414L28.941 10.7426C28.985 11.6979 29.3976 11.7273 30.1402 11.8703V12.237H25.8918V11.8703C26.6252 11.7273 27.1038 11.6979 27.0616 10.7426L26.8086 4.41126L23.73 12.2407H23.3009L20.1857 4.99617Z" fill="white"/>
<path d="M30.8516 7.77842C30.8516 5.05372 32.7915 3.02944 35.4869 3.02944C38.1254 3.02944 40.0708 4.96754 40.0708 7.70691C40.0708 10.3876 38.1327 12.4119 35.4374 12.4119C32.7915 12.4119 30.8516 10.472 30.8516 7.77842ZM35.6721 11.8416C37.1701 11.8416 38.0686 10.4866 38.0686 8.13414C38.0686 5.43877 36.9684 3.59968 35.2448 3.59968C33.7468 3.59968 32.8483 4.9547 32.8483 7.34936C32.8483 10.0026 33.9467 11.8416 35.6721 11.8416ZM35.4429 0.00585938L37.4598 2.15849L37.2599 2.37302L35.4484 1.16102L33.6386 2.37302L33.4388 2.14382L35.4429 0.00585938ZM35.4575 12.9253C35.6607 12.9279 35.8585 12.9906 36.0259 13.1056C36.1934 13.2206 36.323 13.3828 36.3983 13.5714C36.4736 13.7601 36.4912 13.9669 36.4489 14.1656C36.4067 14.3643 36.3064 14.546 36.1609 14.6877C36.0153 14.8295 35.831 14.9248 35.6312 14.9617C35.4314 14.9986 35.2252 14.9755 35.0386 14.8951C34.852 14.8148 34.6934 14.6809 34.5829 14.5105C34.4724 14.34 34.415 14.1406 34.4179 13.9374C34.4222 13.6656 34.534 13.4065 34.7289 13.2168C34.9237 13.0272 35.1857 12.9223 35.4575 12.9253Z" fill="white"/>
<path d="M41.2051 7.74894C41.2051 5.02424 43.244 3.0293 46.2529 3.0293C47.4943 3.0293 48.5211 3.37034 49.0491 3.68388C49.0479 4.32694 49.0809 4.96961 49.1482 5.60915H48.5632C48.2222 4.11294 47.2229 3.5922 46.0971 3.5922C44.1571 3.5922 43.2312 5.10308 43.2312 7.18603C43.2312 9.79522 44.7421 11.6343 46.924 11.6343C47.5658 11.6343 48.5211 11.4785 49.106 10.8789L49.4342 11.2218C48.864 11.8488 47.6373 12.4044 46.0824 12.4044C43.1285 12.4117 41.2051 10.4021 41.2051 7.74894Z" fill="white"/>
<path d="M53.4824 7.74894C53.4824 5.02424 55.5214 3.0293 58.5303 3.0293C59.7716 3.0293 60.7984 3.37034 61.3265 3.68388C61.3252 4.32694 61.3583 4.96961 61.4255 5.60915H60.8406C60.4995 4.11294 59.5003 3.5922 58.3744 3.5922C56.4345 3.5922 55.5067 5.10308 55.5067 7.18603C55.5067 9.79522 57.0194 11.6343 59.2014 11.6343C59.8431 11.6343 60.7984 11.4785 61.3833 10.8789L61.7115 11.2218C61.1413 11.8488 59.9146 12.4044 58.3598 12.4044C55.4132 12.4117 53.4824 10.4021 53.4824 7.74894Z" fill="white"/>
<path d="M63.6064 10.7426V4.75414C63.6064 3.79884 63.1645 3.7695 62.4219 3.62648V3.25977H66.6721V3.62648C65.9387 3.7695 65.4895 3.79884 65.4895 4.75414V7.48435H69.197V4.75414C69.197 3.79884 68.7532 3.7695 68.0125 3.62648V3.25977H72.2627V3.62648C71.5293 3.7695 71.0782 3.79884 71.0782 4.75414V10.7426C71.0782 11.6979 71.5201 11.7273 72.2627 11.8703V12.237H68.0125V11.8703C68.7459 11.7273 69.197 11.6979 69.197 10.7426V8.03442H65.4968V10.7426C65.4968 11.6979 65.9387 11.7273 66.6795 11.8703V12.237H62.4219V11.8703C63.1645 11.7273 63.6064 11.7016 63.6064 10.7426Z" fill="white"/>
<path d="M73.7295 11.0437L77.1253 3.15926H77.7378L81.1739 11.0583C81.4453 11.6873 81.6158 11.7441 82.3584 11.8724V12.2392H78.2512V11.8724C78.8636 11.7441 79.4063 11.6891 79.1349 11.0583L78.4932 9.57496H75.0094L74.3823 11.0583C74.1109 11.6873 74.639 11.7441 75.2532 11.8724V12.2392H72.5469V11.8724C73.2876 11.7423 73.46 11.6854 73.7295 11.0437ZM78.2512 9.02672L76.7256 5.50442L75.2422 9.02672H78.2512ZM77.3674 0L79.3843 2.15263L79.1845 2.36715L77.3747 1.15516L75.5631 2.36715L75.3633 2.13796L77.3674 0Z" fill="white"/>
<path d="M83.1142 8.64683V4.75414C83.1142 3.79884 82.6723 3.7695 81.9297 3.62648V3.25977H86.1946V3.62648C85.4612 3.7695 85.0101 3.79884 85.0101 4.75414V8.86137C85.0101 11.399 86.3358 11.7694 87.2783 11.7694C88.2207 11.7694 89.6876 11.4027 89.6876 9.04656V4.75414C89.6876 3.79884 89.2164 3.7695 88.4756 3.62648V3.25977H91.6129V3.62648C90.8006 3.7695 90.3293 3.79884 90.3293 4.75414V8.76785C90.3293 11.6631 88.6039 12.4185 86.7795 12.4185C85.1165 12.4112 83.1142 11.8134 83.1142 8.64683Z" fill="white"/>
<path d="M29.2658 46.0579C29.2632 45.9144 29.2931 45.7722 29.3535 45.6419C29.4138 45.5117 29.503 45.3969 29.6142 45.3061L29.8562 45.3465C29.8965 45.8837 30.4063 46.619 31.0627 46.619C31.178 46.6209 31.2925 46.5991 31.3991 46.555C31.5056 46.5109 31.602 46.4454 31.6823 46.3626C31.7625 46.2797 31.8249 46.1813 31.8656 46.0734C31.9064 45.9655 31.9245 45.8504 31.919 45.7352C31.919 44.6497 30.5805 43.9273 30.5805 42.8015C30.5805 41.8095 31.5578 41.0596 32.5754 41.0596C33.1126 41.0596 33.7287 41.2429 33.7287 41.9177C33.7287 42.5063 33.2722 43.2562 32.2619 43.9933C32.5176 44.3346 32.6629 44.746 32.6781 45.1723C32.6781 46.3256 31.6054 47.0755 30.5475 47.0755C29.5757 47.0755 29.2658 46.4998 29.2658 46.0579ZM32.1738 43.8576C32.7239 43.2544 32.9641 42.6511 32.9641 42.1432C32.9713 42.0499 32.9589 41.956 32.9277 41.8677C32.8965 41.7794 32.8472 41.6986 32.783 41.6304C32.7188 41.5623 32.6411 41.5082 32.5548 41.4718C32.4686 41.4354 32.3757 41.4174 32.282 41.419C31.8658 41.419 31.3304 41.7142 31.3304 42.2771C31.3304 42.8015 31.7998 43.2965 32.1738 43.8594V43.8576Z" fill="white"/>
<path d="M34.0903 46.2983L35.5571 42.6312C35.9733 41.6117 35.4508 41.8537 34.4056 43.3004L34.2314 43.1006C35.0896 41.707 35.7717 41.0836 36.2814 41.0836C36.6573 41.0836 36.925 41.3935 36.7233 41.8611L35.2564 45.5282C34.842 46.5459 35.3903 46.2782 36.4097 44.8443L36.5931 45.0588C35.735 46.4377 35.0786 47.0758 34.5762 47.0758C34.2241 47.0758 33.9032 46.7677 34.0903 46.2983ZM36.8241 37.9775C36.9882 37.9793 37.1452 38.0444 37.2624 38.1592C37.3795 38.274 37.4479 38.4297 37.453 38.5936C37.4443 38.7548 37.3742 38.9065 37.257 39.0175C37.1399 39.1285 36.9846 39.1904 36.8232 39.1904C36.6618 39.1904 36.5066 39.1285 36.3894 39.0175C36.2722 38.9065 36.2021 38.7548 36.1934 38.5936C36.1986 38.4293 36.2672 38.2735 36.3847 38.1586C36.5023 38.0438 36.6598 37.9789 36.8241 37.9775Z" fill="white"/>
<path d="M40.6003 46.3663L41.7536 43.3372C42.0873 42.4204 42.2487 41.8905 41.7665 41.8905C40.989 41.8905 39.2471 44.4099 38.2295 46.942H37.3457L38.8987 42.6276C39.2655 41.6357 38.7796 41.8777 37.7473 43.2969L37.5639 43.097C38.422 41.7035 39.1041 41.0801 39.6542 41.0801C39.9622 41.0801 40.1364 41.335 39.9494 41.7768L38.9171 44.4172H39.1004C40.6003 41.8318 41.6675 41.0801 42.3826 41.0801C43.2993 41.0801 43.0921 42.0995 42.5439 43.4637L41.739 45.5284C41.3722 46.4928 41.8343 46.2508 42.8795 44.8169L43.039 45.0315C42.1827 46.4121 41.5116 47.0686 40.989 47.0686C40.681 47.0759 40.4261 46.8339 40.6003 46.3663Z" fill="white"/>
<path d="M43.8047 45.3062C43.8047 43.3644 45.4787 41.0596 47.2482 41.0596C48.0384 41.0596 48.4272 41.5418 48.4272 42.1597C48.4272 42.6016 48.2126 42.9647 47.8111 42.9647C47.4095 42.9647 47.3142 42.6291 47.3417 42.2001C47.3948 41.5565 47.3013 41.3694 46.9658 41.3694C45.7868 41.3694 44.8223 43.6064 44.8223 44.9468C44.8223 45.7242 45.1707 46.3 45.8546 46.3C46.4175 46.3 47.0465 45.9112 47.4884 45.308L47.6094 45.55C47.0465 46.6208 46.0948 47.0774 45.3046 47.0774C44.3933 47.0756 43.8047 46.432 43.8047 45.3062Z" fill="white"/>
<path d="M48.7207 45.4272C48.7207 43.4102 50.6368 41.0596 52.3787 41.0596C53.1121 41.0596 53.3707 41.529 53.3707 42.0112C53.3707 43.082 52.2045 43.953 49.753 44.4902C49.7265 44.6582 49.713 44.828 49.7127 44.9981C49.7127 45.7224 50.0794 46.311 50.7046 46.311C51.0386 46.2847 51.3631 46.1875 51.6565 46.026C51.9499 45.8644 52.2055 45.6421 52.4062 45.374L52.5401 45.5885C52.2847 46.014 51.9288 46.3702 51.5036 46.626C51.0784 46.8817 50.5969 47.0292 50.1014 47.0554C49.2304 47.0627 48.7207 46.432 48.7207 45.4272ZM52.419 42.1267C52.419 41.6702 52.2577 41.43 51.9368 41.43C51.2034 41.43 50.1692 42.8492 49.8337 44.1803C51.0127 43.9126 52.419 43.4451 52.419 42.1396V42.1267Z" fill="white"/>
<path d="M57.2273 45.9226L58.4063 42.2554C58.608 41.6265 58.1917 41.533 57.5353 41.4523L57.6032 41.1846H60.8596L60.7642 41.4651C60.0546 41.5458 59.5596 41.6265 59.3579 42.2554L58.1661 45.9226C57.9827 46.513 58.3934 46.5937 59.0829 46.6743L58.9747 46.942H55.7402L55.8337 46.6597C56.558 46.5808 57.0274 46.513 57.2273 45.9226Z" fill="white"/>
<path d="M66.5534 43.2397C66.5534 46.2669 63.2034 49.5894 60.2825 49.7782L60.2422 49.4555C62.8697 49.2007 65.5486 45.5445 65.5486 42.9976C65.5486 42.1267 65.1819 41.5308 64.4759 41.5308C63.1099 41.5308 61.8502 43.4469 61.8502 44.8001C61.8502 45.5903 62.2665 46.0726 63.1099 46.0726C63.3951 46.0692 63.6787 46.0285 63.9534 45.9515L63.8598 46.2468C63.4331 46.4658 62.9606 46.5808 62.481 46.5823C61.4083 46.5823 60.8198 45.9387 60.8198 44.8661C60.8198 42.9903 62.6808 41.0742 64.6373 41.0742C65.9648 41.0724 66.5534 41.9433 66.5534 43.2397Z" fill="white"/>
<path d="M67.5312 45.2804C67.5312 43.9675 68.5635 42.9224 69.9296 42.3851C69.7526 42.2105 69.6126 42.0019 69.5181 41.7719C69.4236 41.542 69.3764 41.2952 69.3795 41.0466C69.3795 39.6531 70.7052 38.4062 72.2729 38.4062C73.4262 38.4062 73.9341 39.0498 73.9341 39.8731C73.9341 40.8633 73.1713 41.7067 72.1115 42.3099C72.7826 42.6767 73.2117 43.1681 73.2117 43.9602C73.2117 45.6489 71.3359 47.0773 69.5262 47.0773C68.283 47.0626 67.5312 46.3787 67.5312 45.2804ZM69.649 46.6739C71.0297 46.6739 72.1134 45.2932 72.1134 44.3159C72.1134 43.6595 71.6861 43.3111 70.8005 42.882L70.6007 42.8142C70.4734 42.7636 70.3507 42.7023 70.2339 42.6308C69.0293 43.1937 68.2922 44.1985 68.2922 45.284C68.2958 46.1366 68.7983 46.6739 69.649 46.6739ZM71.3103 41.9432L71.7246 42.1266C72.6634 41.5765 73.2538 40.6597 73.2538 39.8218C73.2538 39.246 72.9458 38.7913 72.2619 38.7913C71.2167 38.7913 70.4283 39.8089 70.4283 40.7074C70.4265 41.1126 70.586 41.5893 71.3103 41.9432Z" fill="white"/>
<path d="M72.8105 48.6704C72.8105 48.3037 73.0783 48.1075 73.4413 48.1075C74.0427 48.1075 73.8557 49.1526 74.7248 49.1526C75.7975 49.1526 77.2441 47.4895 77.2441 46.0832C77.2441 45.2397 76.6684 44.3413 74.6588 44.73L74.5249 44.4623L76.6537 41.1802H78.744C79.4279 41.1802 79.7635 41.1124 80.1375 40.7236H80.4071L79.5215 42.1703H76.375L75.1557 44.0039C77.4733 43.6812 78.3975 44.6457 78.3975 45.9182C78.3975 47.7811 76.3475 49.4826 74.3783 49.4826C73.709 49.4863 72.8105 49.2901 72.8105 48.6704Z" fill="white"/>
</svg>
