<svg width="192" height="49" viewBox="0 0 192 49" fill="none" xmlns="http://www.w3.org/2000/svg">
<path d="M192 26.1273C166.444 32.399 121.023 30.674 96.4259 25.2075C64.8949 18.201 24.5834 19.8028 0 26.1699C16.5972 24.8932 46.4448 23.7941 80.2935 35.1075C108.499 44.8291 156.195 52.4565 192 45.7326V26.1273Z" fill="white"/>
<path d="M93.5537 16.915H88.9404V0.373047H93.5537V16.915Z" fill="white"/>
<path d="M7.45257 7.69084H5.12225L5.12154 3.32097H7.69688C9.28417 3.32097 9.84324 4.34114 9.84324 5.42155C9.84324 6.55018 9.10493 7.69084 7.45257 7.69084ZM7.45267 0.413086H0.604004V16.9591H5.12247V10.6566H8.61513C12.3086 10.6566 14.1819 8.9086 14.1819 5.46013C14.1819 1.96986 12.3623 0.413086 7.45267 0.413086Z" fill="white"/>
<path d="M24.8109 14.2112C22.393 14.2112 20.9511 12.1612 20.9511 8.72555C20.9511 3.35881 23.8799 2.9379 24.778 2.9379C26.1066 2.9379 28.3349 3.68737 28.3349 8.69663C28.3349 12.1475 27.0175 14.2112 24.8109 14.2112ZM24.9346 0.0966797C19.784 0.0966797 16.5845 3.3789 16.5845 8.66372C16.5845 14.0674 19.5381 17.1689 24.6864 17.1689C29.7808 17.1689 32.822 13.93 32.822 8.51268C32.822 3.08572 30.021 0.0966797 24.9346 0.0966797Z" fill="white"/>
<path d="M35.7197 8.91079C35.7197 3.37779 38.8156 0.0722656 44.0032 0.0722656C48.0782 0.0722656 50.6383 2.09493 50.7966 5.35705H46.3769C46.0612 3.93124 45.135 3.15044 43.6393 3.15044C41.9002 3.15044 40.1458 4.81001 40.1458 8.51236C40.1458 13.4702 42.297 14.2109 43.5782 14.2109C45.3021 14.2109 46.2724 13.3626 46.5608 11.6387H51.0399C50.8809 15.1081 48.1489 17.2585 43.7943 17.2585C40.1105 17.2585 35.7197 15.8102 35.7197 8.91079Z" fill="white"/>
<path d="M58.6384 10.6316L61.1984 3.44861L63.7047 10.6316H58.6384ZM63.8276 0.358398H58.8818C58.7308 0.729506 52.5399 16.1011 52.2153 16.9036H56.3755C56.5049 16.5397 57.5756 13.5386 57.5756 13.5386H64.663C64.663 13.5386 65.7089 16.5365 65.8382 16.9036H70.6025C70.2731 16.0979 63.977 0.727089 63.8276 0.358398Z" fill="white"/>
<path d="M79.611 7.38267H76.8847V3.31887L79.7034 3.32614C81.4979 3.32614 82.0048 4.23063 82.0048 5.20501C82.0048 6.40112 81.624 7.38267 79.611 7.38267ZM85.9127 13.033C85.9127 8.89609 83.0474 8.53141 83.0474 8.53141C83.0474 8.53141 86.3522 8.43987 86.2831 4.37123C86.2326 1.61515 85.1609 0.303388 79.0326 0.371674H72.4272V16.9137H76.8847V10.4561H79.5789C81.2794 10.4561 81.5148 12.0201 81.5148 13.7045C81.5148 14.8966 81.9405 16.3939 82.4112 16.9137H86.8767C86.3931 15.859 85.9127 14.5368 85.9127 13.033Z" fill="white"/>
<path d="M113.338 12.2951C113.338 10.6877 111.333 10.2162 109.394 9.76071C106.674 9.1237 104.158 8.09472 104.158 4.92494C104.158 2.11748 106.878 0 110.485 0C113.162 0 115.077 0.55912 116.175 1.66522C117.242 2.74082 117.311 4.10317 117.311 4.93217V4.94806H112.966C112.934 4.13997 112.683 2.74306 110.7 2.74306C109.474 2.74306 108.585 3.46762 108.585 4.46369C108.585 5.94977 109.953 6.30644 112.948 7.08964C115.551 7.76518 117.887 8.64237 117.887 11.9005C117.887 15.1281 115.224 17.2166 111.099 17.2166C106.297 17.2166 103.914 15.3642 103.784 11.596H108.089C108.201 13.3183 109.232 14.3802 110.854 14.3802C112.317 14.3802 113.338 13.5217 113.338 12.2951Z" fill="white"/>
<path d="M129.039 0.251953L126.013 12.5612L123.006 0.274309H118.413L123.336 16.8197H128.155L131.701 3.9338H131.703L135.252 16.8197H140.067L144.99 0.274309H140.4L137.391 12.5612L134.367 0.251953H129.039Z" fill="white"/>
<path d="M158.529 0.288086V3.15583H151.463V6.71194H157.98V9.67286H151.463V13.6314H158.743V16.8309H147.031V0.288086H158.529Z" fill="white"/>
<path d="M167.352 10.717L169.911 3.53805L172.417 10.717H167.352ZM172.568 0.328125H167.623C167.474 0.70003 161.281 16.0693 160.958 16.8733H165.118C165.247 16.5094 166.316 13.5084 166.316 13.5084H173.406C173.406 13.5084 174.452 16.5046 174.581 16.8733H179.345C179.015 16.0685 172.72 0.697629 172.568 0.328125Z" fill="white"/>
<path d="M192 0.288086V3.42892H186.858V16.8309H182.49V3.42892H177.256V0.288086H192Z" fill="white"/>
</svg>
