<svg width="139" height="41" viewBox="0 0 139 41" fill="none" xmlns="http://www.w3.org/2000/svg">
<g clip-path="url(#clip0_586_3048)">
<path d="M42.6062 12.0519C43.197 11.9494 43.7144 11.8674 44.2237 11.7649C45.2953 11.5476 46.3628 11.6665 47.4059 11.8838C49.052 12.2283 50.5188 12.9582 51.7044 14.1966C52.9186 15.4637 53.6887 16.9563 53.9373 18.7073C54.2917 21.1964 53.9373 23.5338 52.3971 25.5923C51.4559 26.8471 50.2173 27.6836 48.7871 28.2905C47.0759 29.0163 45.3442 29.0491 43.5637 28.6801C40.7605 28.0978 38.8169 26.4206 37.6965 23.8331C37.0405 22.3118 36.8408 20.6879 37.122 19.019C37.342 17.7108 37.4561 16.3863 37.6435 15.0741C37.7942 14.008 37.9939 12.95 38.1446 11.8879C38.2669 11.035 38.3484 10.1738 38.4543 9.31681C38.5114 8.85754 38.5684 8.39827 38.6743 7.94719C38.7029 7.83238 38.8943 7.70115 39.0329 7.67655C40.3408 7.43051 41.6487 7.20498 42.9566 6.99994C43.034 6.98764 43.2377 7.20908 43.2255 7.30749C43.1644 7.93899 43.0584 8.56639 42.977 9.19379C42.8547 10.1041 42.7406 11.0145 42.6062 12.0478V12.0519ZM45.5031 24.3744C47.9437 24.3744 49.712 22.5947 49.6468 20.081C49.5898 17.8339 47.8704 16.2305 45.6376 16.1649C43.1522 16.0952 41.4124 18.2275 41.4327 20.3435C41.4531 22.402 43.2948 24.5384 45.5031 24.3744Z" fill="white"/>
<path d="M106.16 21.6065C104.302 21.6065 102.489 21.6065 100.671 21.6065C98.4998 21.6065 96.3281 21.6147 94.1524 21.5983C93.7449 21.5983 93.6145 21.6844 93.7571 22.115C94.1931 23.4149 95.061 24.2678 96.3729 24.5631C97.5016 24.8132 98.6669 24.8214 99.7303 24.2719C100.231 24.0136 100.663 23.6158 101.136 23.3042C101.344 23.1689 101.58 22.9925 101.804 22.9843C103.141 22.9556 104.481 22.9679 105.875 22.9679C105.626 24.0013 105.227 24.8993 104.611 25.7031C103.483 27.1793 102.028 28.1676 100.252 28.6842C98.9521 29.0615 97.6319 29.0738 96.2955 28.8852C95.0569 28.713 93.9405 28.2824 92.9056 27.5648C91.0884 26.3018 90.0005 24.559 89.4953 22.4349C89.3323 21.7459 89.1652 21.0201 89.2019 20.323C89.3038 18.3629 89.7519 16.5176 90.9458 14.8609C92.1966 13.1264 93.8508 12.0561 95.8677 11.7075C99.9544 11.0022 104.082 12.5687 105.728 17.2639C106.213 18.6459 106.278 20.0934 106.152 21.6106L106.16 21.6065ZM94.0057 18.0677H101.197C101.303 17.5592 101.03 17.1942 100.724 16.8457C99.8159 15.8123 98.6261 15.677 97.3345 15.6401C95.6436 15.5909 94.4335 16.6529 94.0057 18.0718V18.0677Z" fill="white"/>
<path d="M68.2186 28.7786C68.2064 28.5079 68.1942 28.2414 68.1779 27.901C67.9538 27.9585 67.7501 27.9749 67.583 28.061C66.0469 28.8688 64.3886 29.0205 62.7222 28.8606C61.3898 28.7335 60.1512 28.2168 59.0104 27.4623C57.2094 26.2772 56.1175 24.5795 55.6082 22.5456C55.1844 20.852 55.213 19.1298 55.8608 17.4362C56.3783 16.083 57.0913 14.8856 58.1629 13.9301C59.6541 12.6015 61.3491 11.7814 63.4067 11.7404C65.2809 11.7035 67.0289 12.0479 68.5894 13.1059C70.5737 14.4468 71.8327 16.3167 72.3542 18.6582C72.5131 19.3758 72.505 20.1426 72.509 20.8848C72.5253 23.3247 72.509 25.7687 72.509 28.2086C72.509 28.8729 72.4968 28.877 71.8653 28.8729C70.6796 28.8647 69.4899 28.8565 68.3042 28.8524C68.2757 28.8278 68.2472 28.7991 68.2186 28.7745V28.7786ZM63.7775 24.477C66.6337 24.477 68.1575 22.8859 68.0801 19.7407C68.0353 17.8708 66.4666 16.0789 63.8671 16.0748C61.288 16.0707 59.7356 17.8626 59.7641 20.8643C59.7804 22.4472 61.561 24.7394 63.7815 24.477H63.7775Z" fill="white"/>
<path d="M124.715 28.5735C124.857 27.6919 125.004 26.8102 125.139 25.9286C125.187 25.6005 125.244 25.2643 125.232 24.9362C125.22 24.559 125.379 24.4729 125.717 24.4729C128.178 24.4852 130.639 24.4852 133.1 24.4852C133.389 24.4852 133.695 24.5303 133.96 24.4442C134.322 24.3293 134.726 24.1899 134.722 23.6691C134.722 22.9925 134.477 22.5743 133.817 22.4389C132.774 22.2216 131.719 22.0658 130.663 21.9223C129.005 21.6967 127.335 21.4917 125.933 20.4624C125.061 19.8186 124.523 18.9329 124.332 17.8626C124.132 16.7513 124.177 15.6688 124.609 14.578C125.191 13.0977 126.279 12.2775 127.73 11.888C128.317 11.7321 128.944 11.6706 129.551 11.6665C132.436 11.646 135.316 11.6583 138.332 11.6583C138.136 13.0566 137.945 14.4222 137.741 15.8697C137.566 15.8697 137.39 15.8697 137.211 15.8697C134.685 15.8697 132.155 15.8697 129.629 15.8779C129.079 15.8779 128.647 16.2429 128.606 16.7144C128.577 17.0466 129.021 17.6412 129.413 17.715C130.566 17.9364 131.723 18.1333 132.876 18.3383C134.273 18.5843 135.7 18.7237 136.959 19.4701C138.242 20.2287 138.894 21.3851 138.979 22.8531C139.02 23.6076 138.996 24.3826 138.878 25.129C138.678 26.4043 137.916 27.3187 136.832 27.9748C135.854 28.5653 134.811 28.8934 133.65 28.8811C130.716 28.8565 127.779 28.8688 124.845 28.8647C124.804 28.7744 124.76 28.6801 124.719 28.5899L124.715 28.5735Z" fill="white"/>
<path d="M74.6683 24.4811C77.3045 24.4811 79.9162 24.4811 82.528 24.477C82.8254 24.477 83.1228 24.4154 83.4203 24.3826C83.9377 24.3211 84.1455 24.0259 84.0926 23.5133C84.0437 23.0417 83.9785 22.6194 83.3836 22.5209C82.2631 22.3364 81.1508 22.0904 80.0262 21.9099C78.3516 21.6434 76.677 21.4302 75.2184 20.4132C73.8697 19.4701 73.2871 17.4525 73.5764 15.8984C73.7801 14.8199 74.1346 13.8645 74.8965 13.0812C75.7521 12.2037 76.8645 11.7362 78.0216 11.7034C81.159 11.6132 84.3004 11.6624 87.4418 11.6583C87.4907 11.6583 87.5396 11.6747 87.6007 11.687C87.4499 12.9131 87.2869 14.1392 87.1525 15.3612C87.1158 15.7098 87.0099 15.8533 86.6269 15.8533C84.1822 15.841 81.7416 15.8533 79.2969 15.8656C79.1176 15.8656 78.9424 15.9312 78.7632 15.9435C78.3313 15.9681 78.095 16.1608 78.0624 16.6201C78.0257 17.1327 78.2294 17.5017 78.6858 17.6494C79.2154 17.8216 79.7777 17.9036 80.3278 18.0184C82.1083 18.3793 83.95 18.4531 85.6572 19.1502C87.2014 19.7858 88.057 20.9463 88.273 22.6153C88.4237 23.7634 88.4645 24.8829 87.9674 25.9737C87.2829 27.4786 86.0198 28.2496 84.5326 28.6555C83.8236 28.8483 83.0495 28.8565 82.3079 28.8606C79.6758 28.8852 77.0478 28.8606 74.4157 28.877C74.0205 28.877 73.9838 28.7334 74.0449 28.3808C74.2242 27.3474 74.3587 26.3099 74.5176 25.2725C74.5543 25.0264 74.6113 24.7804 74.6683 24.4811Z" fill="white"/>
<path d="M107.435 12.4047C108.894 12.1586 110.308 11.9208 111.766 11.6747C111.807 12.2324 111.864 12.6835 111.864 13.1346C111.872 15.9353 111.868 18.7361 111.864 21.5368C111.864 23.2468 113.086 24.4606 114.785 24.4852C115.751 24.4975 116.676 24.4401 117.524 23.8947C118.379 23.3452 118.689 22.5579 118.685 21.5655C118.668 18.6294 118.677 15.6934 118.681 12.7573C118.681 12.6589 118.705 12.5564 118.721 12.417C120.131 12.1668 121.537 11.9208 123.053 11.6542C123.053 13.7825 123.061 15.759 123.053 17.7396C123.044 19.4455 123.085 21.1554 122.987 22.8572C122.853 25.1946 121.696 26.9128 119.593 27.9625C118.526 28.4956 117.397 28.7417 116.22 28.9016C114.639 29.1107 113.123 28.9262 111.652 28.3644C109.46 27.5279 108.083 25.9327 107.525 23.6445C107.419 23.2099 107.419 22.7465 107.419 22.2954C107.411 19.1379 107.411 15.9763 107.415 12.8188C107.415 12.6999 107.423 12.5851 107.431 12.4047H107.435Z" fill="white"/>
</g>
<path d="M8.47747 4.00371C8.32065 5.07643 8.16757 6.13801 7.99955 7.27011C8.59694 7.0474 9.09352 6.83954 9.60504 6.67251C10.8372 6.27534 12.1066 5.99696 13.3985 6.11945C14.7725 6.24936 16.1241 6.50919 17.4159 7.06225C18.6742 7.60046 19.7831 8.34653 20.7352 9.29676C22.2996 10.8594 23.4047 12.6931 23.7408 14.9127C23.8715 15.7627 24.0469 16.6276 24.0021 17.4739C23.8752 19.92 23.065 22.1211 21.4707 24.0438C19.8577 25.9888 17.7893 27.1766 15.3699 27.7519C14.4476 27.9709 13.4619 27.956 12.5024 27.9783C10.5198 28.0266 8.76496 27.3139 7.1072 26.308C5.48305 25.3207 4.236 23.9584 3.34365 22.3141C2.70145 21.13 2.23101 19.8569 2.07793 18.4835C1.92485 17.1101 2.00325 15.7665 2.26088 14.4116C2.4513 13.4206 2.5185 12.4073 2.64918 11.4088C2.77239 10.4845 2.90681 9.56401 3.03748 8.63977C3.15696 7.77491 3.27644 6.91006 3.39218 6.0415C3.42952 5.7594 3.39592 5.44761 3.50793 5.1952C3.5938 4.99848 3.82903 4.77577 4.03438 4.73494C5.06861 4.51965 6.11031 4.35633 7.15201 4.18188C7.55151 4.11507 7.95848 4.07052 8.47747 4V4.00371ZM12.943 11.0228C10.9417 10.8075 9.41835 11.7131 8.21611 13.1311C7.0288 14.5341 6.53222 16.2119 6.85331 18.0604C7.0848 19.404 7.66352 20.6141 8.66788 21.5272C10.0904 22.8189 11.7519 23.5241 13.7532 23.2198C14.7874 23.0639 15.7432 22.7298 16.5758 22.1471C18.872 20.5361 19.5105 18.2422 18.9953 15.618C18.6779 14.0071 17.7445 12.7228 16.3107 11.8319C15.269 11.1824 14.1489 10.8891 12.9392 11.019L12.943 11.0228Z" fill="white"/>
<path d="M5.04623 27.2731C5.34493 27.7148 5.55401 28.0785 5.81164 28.4015C6.63305 29.4296 7.81289 29.9085 9.01141 30.2759C10.3145 30.6731 11.6586 30.9106 13.0401 30.8735C14.7613 30.8253 16.4153 30.4801 18.0245 29.8713C19.2081 29.4222 20.1191 28.6761 20.7725 27.5997C20.8173 27.5255 21.1011 27.4958 21.1944 27.5589C22.9119 28.7281 22.8895 31.3969 21.243 32.6366C19.7383 33.7687 18.0469 34.4183 16.2436 34.8229C15.6536 34.9565 15.0413 34.9825 14.4365 35.0271C13.7345 35.0753 13.0251 35.1384 12.3232 35.1124C9.60506 35.0122 7.04002 34.3923 4.85208 32.6997C4.01947 32.0539 3.39221 31.2262 3.49675 30.0718C3.57143 29.2329 3.9672 28.5314 4.49738 27.8967C4.66166 27.6999 4.84088 27.5106 5.04997 27.2731H5.04623Z" fill="white"/>
<defs>
<clipPath id="clip0_586_3048">
<rect width="102" height="22" fill="white" transform="translate(37 7)"/>
</clipPath>
</defs>
</svg>
