<svg width="90" height="44" viewBox="0 0 90 44" fill="none" xmlns="http://www.w3.org/2000/svg">
<path d="M12.8496 15.4551H8.56641V38H4.69824V15.4551H0.415039V12.0186H12.8496V15.4551ZM18.793 38H14.9082V12.0186H18.793V38ZM35.1455 38H31.7422L25.5166 21.6475C25.6826 22.4443 25.7656 23.0697 25.7656 23.5234V38H21.9805V12.0186H25.3838L31.6094 28.0391C31.4434 27.2422 31.3604 26.6169 31.3604 26.1631V12.0186H35.1455V38ZM51.3486 12.168L47.9121 23.0254C47.4915 24.099 46.9215 25.9085 46.2021 28.4541V38H42.3008V28.4541C42.1237 27.5908 41.8691 26.6777 41.5371 25.7148C40.9505 24.0658 40.6351 23.1693 40.5908 23.0254L37.1709 12.168C37.1598 12.1569 37.1598 12.1071 37.1709 12.0186H41.1719L44.2764 23.3076L47.3643 12.0186H51.3486C51.3486 12.096 51.3486 12.1458 51.3486 12.168ZM56.7939 38H53.0586V33.9824H56.7939V38ZM72.5654 12.0186L67.585 38.0332H63.7168L58.7529 12.0186H62.6543L65.5596 29.832C65.5817 30.3411 65.6149 31.0827 65.6592 32.0566C65.6481 31.5475 65.6813 30.806 65.7588 29.832L68.6807 12.0186H72.5654ZM87.9385 38H84.5352L78.3096 21.6475C78.4756 22.4443 78.5586 23.0697 78.5586 23.5234V38H74.7734V12.0186H78.1768L84.4023 28.0391C84.2363 27.2422 84.1533 26.6169 84.1533 26.1631V12.0186H87.9385V38Z" fill="white"/>
</svg>
