<svg width="114" height="50" viewBox="0 0 114 50" fill="none" xmlns="http://www.w3.org/2000/svg">
<path d="M28.1656 6.2237C29.7167 6.2237 30.9717 4.96864 30.9717 3.41751C30.9717 1.86639 29.7167 0.611328 28.1656 0.611328C26.6144 0.611328 25.3594 1.86639 25.3594 3.41751C25.3594 4.96864 26.6209 6.2237 28.1656 6.2237Z" fill="white"/>
<path d="M17.848 30.2567H5.18154C3.50813 30.2567 2.11791 29.0724 1.7961 27.4956C1.7253 27.1609 1.40349 26.8262 1.06237 26.8069C0.483115 26.7683 -0.00603664 27.2445 0.0390168 27.8174C0.296465 31.2221 1.85403 34.26 4.21611 36.4419C4.91122 37.0791 5.98607 37.0533 6.65543 36.3904L9.94433 33.1015C10.2533 32.7926 10.7424 32.7153 11.1029 32.9663C11.5727 33.2946 11.6177 33.9446 11.2316 34.3244L7.49214 38.0638C7.29262 38.2633 7.35698 38.598 7.61443 38.7203C8.01347 38.9069 8.42539 39.0679 8.84374 39.2159C10.1632 39.6729 11.6306 39.3382 12.6218 38.347L16.4063 34.5625C16.7152 34.2536 17.2044 34.1763 17.5648 34.4273C18.0346 34.7556 18.0797 35.4057 17.6935 35.7918L14.1343 39.351C13.9219 39.5634 14.0699 39.9303 14.3724 39.9303H17.4039C18.3951 39.9303 19.3541 39.5377 20.0556 38.8297L22.8618 36.0235C23.1707 35.7146 23.6599 35.6374 24.0203 35.8884C24.4902 36.2166 24.5352 36.8667 24.149 37.2528L22.0701 39.3382C21.8513 39.557 22.0058 39.9367 22.3147 39.9367H25.6615C27.5731 39.9367 29.2208 41.4299 29.2529 43.3351C29.2787 45.0213 28.0944 46.4437 26.5111 46.772C26.125 46.8557 25.8096 47.1775 25.8031 47.5765C25.7903 48.1365 26.2987 48.5806 26.8394 48.4711C29.2015 47.9884 30.9843 45.8967 30.9843 43.393C30.9714 36.1329 25.0952 30.2567 17.848 30.2567Z" fill="white"/>
<path d="M12.8346 27.5404C13.047 27.5533 13.2529 27.5533 13.4653 27.5533H13.4718C19.9144 27.5533 25.2951 23.0351 26.6209 16.9979C26.7368 16.4573 26.3184 15.9553 25.7713 15.9553H17.7969C17.3142 15.9553 16.928 16.3414 16.928 16.8242V22.3786C16.928 24.4189 15.1645 26.0408 13.0792 25.8091C11.3542 25.6224 10.0155 24.1485 10.0155 22.3722V14.0823H16.928H24.5613C25.9194 14.0823 26.962 12.8466 26.6982 11.5078C25.4431 5.00084 19.496 0.160818 12.5192 0.643533C5.87704 1.1005 0.489937 6.48761 0.0329667 13.1298C-0.494802 20.7824 5.38145 27.1929 12.8346 27.5404ZM13.1435 2.35556C15.2031 2.16248 16.928 3.77796 16.928 5.7925V12.2094H10.0155V5.88904C10.0155 4.09334 11.3542 2.51647 13.1435 2.35556Z" fill="white"/>
<path d="M56.8518 9.4485C55.8799 8.46376 54.5605 7.97461 52.9 7.97461C51.4969 7.97461 50.2804 8.35435 49.2571 9.11382C48.2337 9.87329 47.5515 10.8838 47.2104 12.1388C47.0237 12.8146 46.9336 13.6449 46.9336 14.6296C46.9336 15.4599 47.0366 16.2451 47.2361 16.9917C47.5901 18.382 48.2788 19.4697 49.3086 20.2678C50.3319 21.0658 51.6256 21.4585 53.1831 21.4585C54.2194 21.4585 55.1655 21.2589 56.0408 20.8599C56.9097 20.4608 57.6306 19.9138 58.1841 19.2187C58.2484 19.135 58.2871 19.032 58.2871 18.9162C58.2871 18.8132 58.2356 18.7102 58.1326 18.6072L56.6844 17.2106C56.6008 17.1269 56.5042 17.0818 56.4077 17.0818C56.2918 17.0818 56.1824 17.1398 56.0794 17.2621C55.4873 17.9893 54.6313 18.382 53.5178 18.4334C52.8034 18.4334 52.1984 18.2918 51.7028 18.0151C51.2008 17.7383 50.8725 17.3328 50.6988 16.8115C50.628 16.6442 50.57 16.3803 50.5186 16.0263C50.5186 15.9233 50.5701 15.8718 50.673 15.8718H58.4673C58.7569 15.8718 58.8985 15.7302 58.8985 15.4406C58.8663 14.7648 58.8148 14.1469 58.744 13.587C58.4544 11.8106 57.8301 10.4332 56.8518 9.4485ZM55.0368 13.3617H50.7181C50.6151 13.3617 50.57 13.3102 50.5894 13.2072C50.6087 13.1043 50.6602 12.8919 50.7438 12.5701C50.879 12.0938 51.13 11.7269 51.4904 11.4695C51.8573 11.2056 52.3078 11.0769 52.8485 11.0769C53.4213 11.0769 53.8976 11.2185 54.2709 11.5081C54.6442 11.7977 54.9081 12.1839 55.0561 12.6795C55.1269 12.879 55.1591 13.0785 55.1591 13.2652C55.1655 13.3295 55.1204 13.3617 55.0368 13.3617Z" fill="white"/>
<path d="M71.192 8.57282C70.3295 8.19309 69.3448 8 68.2442 8C67.2466 8 66.3326 8.15447 65.5152 8.46984C64.6914 8.78522 64.0349 9.21644 63.5329 9.77639C63.0309 10.3363 62.7412 10.9607 62.6576 11.6558C62.6383 11.7587 62.6704 11.836 62.7477 11.8939C62.8249 11.9518 62.9279 11.9904 63.0631 12.0098L65.8821 12.3637C66.1202 12.3831 66.2876 12.2672 66.3906 12.0355C66.5064 11.733 66.7317 11.4949 67.0664 11.3275C67.3946 11.1602 67.8194 11.0765 68.3214 11.0765C68.9779 11.0765 69.4864 11.231 69.8339 11.5463C70.1815 11.8617 70.3553 12.2929 70.3553 12.8529V13.3871C70.3553 13.4901 70.3038 13.5416 70.2008 13.5416H67.6328C65.94 13.5416 64.6335 13.902 63.7195 14.6229C62.8056 15.3437 62.3486 16.3542 62.3486 17.6543C62.3486 18.9094 62.7477 19.8555 63.5458 20.4991C64.3374 21.1427 65.393 21.4645 66.6931 21.4645C68.2313 21.4645 69.3963 21.0333 70.1751 20.1709C70.2265 20.1194 70.2652 20.1001 70.3038 20.1065C70.336 20.1129 70.3553 20.1516 70.3553 20.2224V20.8338C70.3553 21.1234 70.4969 21.265 70.7865 21.265H73.5026C73.7922 21.265 73.9338 21.1234 73.9338 20.8338V12.3444C73.9338 11.5335 73.6892 10.7933 73.2129 10.1368C72.7238 9.47389 72.0544 8.95256 71.192 8.57282ZM70.3553 16.7146C70.3553 17.3261 70.0978 17.8216 69.5894 18.2143C69.0809 18.6069 68.463 18.7999 67.7357 18.7999C67.1951 18.7999 66.7574 18.6712 66.4292 18.4073C66.1009 18.1435 65.9336 17.783 65.9336 17.3261C65.9336 16.7983 66.1524 16.3928 66.5965 16.1096C67.0342 15.82 67.6392 15.6784 68.3987 15.6784H70.2008C70.3038 15.6784 70.3553 15.7299 70.3553 15.8329V16.7146Z" fill="white"/>
<path d="M78.7609 21.2586H81.4769C81.7666 21.2586 81.9082 21.117 81.9082 20.8274V14.0243C81.9082 13.3614 82.1205 12.8336 82.5453 12.4346C82.9701 12.0355 83.485 11.8103 84.0965 11.7588C84.3668 11.7266 84.5599 11.7073 84.6822 11.7073C84.901 11.7073 85.1456 11.7395 85.4223 11.8103C85.5897 11.8425 85.7119 11.8425 85.7892 11.8103C85.8664 11.7781 85.9115 11.6816 85.9308 11.5335L86.4135 8.86893C86.465 8.61792 86.3878 8.43771 86.1882 8.33473C85.8342 8.13521 85.3837 8.03223 84.8431 8.03223C83.691 8.03223 82.777 8.52138 82.1012 9.50612C82.0497 9.55761 82.0047 9.57692 81.9725 9.55761C81.9403 9.5383 81.921 9.49968 81.921 9.42888V8.64367C81.921 8.35404 81.7794 8.21244 81.4898 8.21244H78.7737C78.4841 8.21244 78.3425 8.35404 78.3425 8.64367V20.8338C78.3232 21.117 78.4712 21.2586 78.7609 21.2586Z" fill="white"/>
<path d="M97.1685 8.20664H94.8836C94.7807 8.20664 94.7292 8.15515 94.7292 8.05217V5.18806C94.7292 4.89843 94.5876 4.75684 94.2979 4.75684H91.7041C91.4145 4.75684 91.2729 4.89843 91.2729 5.18806V8.05861C91.2729 8.16159 91.2214 8.21308 91.1185 8.21308H89.8248C89.5351 8.21308 89.3936 8.35467 89.3936 8.6443V10.6524C89.3936 10.942 89.5351 11.0836 89.8248 11.0836H91.1185C91.2214 11.0836 91.2729 11.1351 91.2729 11.2381V17.8931C91.2922 19.1804 91.6462 20.0621 92.3413 20.532C93.0364 21.0083 94.0855 21.24 95.4886 21.24C95.7783 21.24 96.2417 21.2206 96.8853 21.1885C97.1749 21.1563 97.3165 21.0018 97.3165 20.7315V18.5496C97.3165 18.26 97.1749 18.1184 96.8853 18.1184H96.1773C95.6688 18.1184 95.302 17.9897 95.0703 17.7258C94.845 17.4619 94.7292 17.05 94.7292 16.4965V11.2381C94.7292 11.1351 94.7807 11.0836 94.8836 11.0836H97.1685C97.4581 11.0836 97.5997 10.942 97.5997 10.6524V8.6443C97.5997 8.34824 97.4581 8.20664 97.1685 8.20664Z" fill="white"/>
<path d="M108.47 8.00712C107.112 8.00712 106.089 8.4834 105.4 9.42952C105.368 9.48101 105.329 9.49388 105.297 9.48101C105.265 9.4617 105.246 9.42308 105.246 9.35229V5.18806C105.246 4.89843 105.104 4.75684 104.814 4.75684H102.098C101.809 4.75684 101.667 4.89843 101.667 5.18806V20.8345C101.667 21.1241 101.809 21.2657 102.098 21.2657H104.814C105.104 21.2657 105.246 21.1241 105.246 20.8345V13.3685C105.246 12.6927 105.439 12.1392 105.831 11.7144C106.217 11.2896 106.726 11.0772 107.357 11.0772C107.981 11.0772 108.483 11.2896 108.856 11.7144C109.23 12.1392 109.416 12.6862 109.416 13.3685V20.8345C109.416 21.1241 109.558 21.2657 109.847 21.2657H112.563C112.853 21.2657 112.995 21.1241 112.995 20.8345V12.6283C112.995 11.2059 112.583 10.0796 111.753 9.24931C110.916 8.41904 109.822 8.00712 108.47 8.00712Z" fill="white"/>
<path d="M58.339 26.2786H55.6229C55.3333 26.2786 55.1917 26.4202 55.1917 26.7098V27.1411C55.1917 27.2119 55.1724 27.2505 55.1402 27.2698C55.108 27.2891 55.063 27.2698 55.0115 27.2183C54.3035 26.4588 53.3123 26.0791 52.0379 26.0791C50.918 26.0791 49.9397 26.3945 49.0902 27.0188C48.2406 27.6431 47.642 28.4734 47.288 29.5096C46.9855 30.3399 46.8311 31.4147 46.8311 32.7341C46.8311 33.9699 46.9598 34.9804 47.2108 35.7527C47.597 36.937 48.2535 37.7994 49.1803 38.3336C50.1006 38.8678 51.1176 39.1317 52.2117 39.1317C53.4475 39.1317 54.3807 38.7906 55.005 38.1148C55.0565 38.0633 55.0951 38.044 55.1338 38.0504C55.1659 38.0569 55.1852 38.0891 55.1852 38.1405C55.1852 39.1896 54.8956 39.9491 54.3099 40.4254C53.7242 40.9017 52.894 41.1334 51.8062 41.1334C51.4008 41.1334 50.8859 41.0883 50.2551 41.0047C50.12 40.9725 50.0041 40.9918 49.914 41.069C49.8175 41.1463 49.7724 41.2492 49.7724 41.3844L49.6694 43.7465C49.6694 44.0361 49.7981 44.1841 50.0492 44.2035C50.7636 44.2871 51.3943 44.3322 51.9543 44.3322C53.9495 44.3322 55.5843 43.8559 56.8522 42.9098C58.1202 41.9637 58.7573 40.3803 58.7573 38.1599V26.7163C58.7702 26.4267 58.6286 26.2786 58.339 26.2786ZM54.9857 34.7873C54.8506 35.2314 54.606 35.5854 54.252 35.8686C53.898 36.1453 53.4475 36.2869 52.9068 36.2869C52.3791 36.2869 51.9285 36.1453 51.5488 35.8686C51.1691 35.5918 50.8987 35.2185 50.7507 34.7615C50.5447 34.3561 50.4418 33.6803 50.4418 32.7277C50.4418 31.8652 50.5576 31.1766 50.7958 30.6681C50.9631 30.2111 51.227 29.8443 51.581 29.5611C51.935 29.2843 52.3662 29.1427 52.8747 29.1427C53.4024 29.1427 53.8401 29.2843 54.1941 29.5611C54.5481 29.8378 54.8055 30.2047 54.9535 30.6681C55.0372 30.9256 55.0951 31.1959 55.1338 31.4791C55.1659 31.7687 55.1852 32.1742 55.1852 32.6955C55.1917 33.5902 55.1209 34.2788 54.9857 34.7873Z" fill="white"/>
<path d="M71.192 26.6519C70.3295 26.2722 69.3448 26.0791 68.2442 26.0791C67.2466 26.0791 66.3326 26.2336 65.5152 26.5489C64.6914 26.8643 64.0349 27.2955 63.5329 27.8555C63.0309 28.4154 62.7412 29.0398 62.6576 29.7349C62.6383 29.8378 62.6704 29.9151 62.7477 29.9794C62.8249 30.0374 62.9279 30.076 63.0631 30.0953L65.8821 30.4493C66.1202 30.4686 66.2876 30.3592 66.3906 30.121C66.5064 29.8185 66.7317 29.5804 67.0664 29.4131C67.3946 29.2457 67.8194 29.162 68.3214 29.162C68.9779 29.162 69.4864 29.3165 69.8339 29.6319C70.1815 29.9473 70.3553 30.3785 70.3553 30.9384V31.4726C70.3553 31.5756 70.3038 31.6271 70.2008 31.6271H67.6328C65.94 31.6271 64.6335 31.9875 63.7195 32.7084C62.8056 33.4292 62.3486 34.4397 62.3486 35.7463C62.3486 37.0013 62.7477 37.9475 63.5458 38.5911C64.3374 39.2347 65.393 39.5565 66.6931 39.5565C68.2313 39.5565 69.3963 39.1253 70.1751 38.2628C70.2265 38.2113 70.2652 38.192 70.3038 38.1985C70.336 38.2049 70.3553 38.2435 70.3553 38.3143V38.9258C70.3553 39.2154 70.4969 39.357 70.7865 39.357H73.5026C73.7922 39.357 73.9338 39.2154 73.9338 38.9258V30.4235C73.9338 29.6126 73.6892 28.8724 73.2129 28.2159C72.7238 27.553 72.0544 27.0317 71.192 26.6519ZM70.3553 34.7873C70.3553 35.3987 70.0978 35.8943 69.5894 36.2869C69.0809 36.6795 68.463 36.8726 67.7357 36.8726C67.1951 36.8726 66.7574 36.7439 66.4292 36.48C66.1009 36.2161 65.9336 35.8557 65.9336 35.3987C65.9336 34.8774 66.1524 34.4655 66.5965 34.1823C67.0342 33.8927 67.6392 33.7511 68.3987 33.7511H70.2008C70.3038 33.7511 70.3553 33.8025 70.3553 33.9055V34.7873Z" fill="white"/>
<path d="M85.1322 26.0791C83.7741 26.0791 82.7508 26.5554 82.0621 27.5015C82.0299 27.553 81.9913 27.5659 81.9591 27.553C81.9269 27.5337 81.9076 27.4951 81.9076 27.4243V26.7163C81.9076 26.4267 81.766 26.2851 81.4764 26.2851H78.7603C78.4707 26.2851 78.3291 26.4267 78.3291 26.7163V38.9065C78.3291 39.1961 78.4707 39.3377 78.7603 39.3377H81.4764C81.766 39.3377 81.9076 39.1961 81.9076 38.9065V31.4405C81.9076 30.7647 82.1007 30.2111 82.4933 29.7928C82.8795 29.368 83.388 29.1556 84.0187 29.1556C84.643 29.1556 85.145 29.368 85.5183 29.7928C85.8916 30.2176 86.0783 30.7647 86.0783 31.4405V38.9065C86.0783 39.1961 86.2199 39.3377 86.5095 39.3377H89.2256C89.5152 39.3377 89.6568 39.1961 89.6568 38.9065V30.7003C89.6568 29.2779 89.2449 28.1516 88.4146 27.3213C87.5779 26.491 86.4838 26.0791 85.1322 26.0791Z" fill="white"/>
<path d="M96.7889 29.1689H94.0728C93.7832 29.1689 93.6416 29.3105 93.6416 29.6002V38.9069C93.6416 39.1966 93.7896 39.3381 94.0728 39.3381H96.7889C97.0785 39.3381 97.2201 39.1966 97.2201 38.9069V29.6002C97.2201 29.3105 97.0785 29.1689 96.7889 29.1689Z" fill="white"/>
<path d="M95.4178 23.6592C94.7742 23.6592 94.2528 23.8587 93.8409 24.2577C93.4354 24.6568 93.2295 25.1717 93.2295 25.796C93.2295 26.4203 93.4354 26.9352 93.8409 27.3343C94.2464 27.7333 94.7742 27.9328 95.4178 27.9328C96.0743 27.9328 96.6085 27.7397 97.0075 27.3471C97.4066 26.9545 97.6061 26.4396 97.6061 25.796C97.6061 25.1524 97.4066 24.6375 97.0075 24.2449C96.6085 23.8523 96.0743 23.6592 95.4178 23.6592Z" fill="white"/>
<path d="M110.742 27.096C109.719 26.4202 108.528 26.0791 107.177 26.0791C105.825 26.0791 104.647 26.4073 103.65 27.0703C102.652 27.7332 101.951 28.6343 101.539 29.7864C101.249 30.6166 101.107 31.5949 101.107 32.7341C101.107 33.8862 101.249 34.8838 101.539 35.7334C101.963 36.9177 102.671 37.8509 103.656 38.5267C104.647 39.2025 105.819 39.5436 107.177 39.5436C108.515 39.5436 109.693 39.2218 110.723 38.5782C111.746 37.9346 112.435 37.0464 112.796 35.9136C112.847 35.7978 112.886 35.5982 112.924 35.3279C112.944 35.2121 112.918 35.1091 112.86 35.0254C112.802 34.9418 112.705 34.8838 112.57 34.8452L109.906 34.4397C109.79 34.4204 109.68 34.459 109.577 34.5556C109.474 34.6521 109.417 34.7294 109.397 34.7937L109.372 34.9224C109.217 35.3987 108.947 35.772 108.548 36.0552C108.149 36.332 107.692 36.4736 107.164 36.4736C106.623 36.4736 106.16 36.332 105.78 36.0423C105.4 35.7527 105.13 35.3537 104.982 34.8516C104.815 34.3432 104.731 33.6481 104.731 32.7663C104.731 31.8846 104.821 31.1894 105.008 30.681C105.162 30.2047 105.42 29.8314 105.793 29.5611C106.166 29.2908 106.623 29.1556 107.164 29.1556C107.724 29.1556 108.207 29.2972 108.612 29.5868C109.018 29.8765 109.281 30.2369 109.397 30.681L109.474 31.035C109.507 31.2409 109.629 31.3375 109.828 31.3375L109.957 31.3117L112.622 30.9063C112.879 30.8548 113.002 30.7196 113.002 30.5008V30.4493C112.969 30.1597 112.899 29.9022 112.796 29.6641C112.448 28.6278 111.766 27.7718 110.742 27.096Z" fill="white"/>
<path d="M39.5251 49.0889C39.184 49.0889 38.9072 48.8122 38.9072 48.4711V0.617876C38.9072 0.276757 39.184 0 39.5251 0C39.8662 0 40.143 0.276757 40.143 0.617876V48.4711C40.143 48.8122 39.8662 49.0889 39.5251 49.0889Z" fill="white"/>
</svg>
