<svg width="127" height="58" viewBox="0 0 127 58" fill="none" xmlns="http://www.w3.org/2000/svg">
<path d="M54.6746 40.9518C54.6635 40.9677 54.6477 40.9797 54.6295 40.9862C54.6112 40.9926 54.5914 40.9932 54.5728 40.9879C54.5542 40.9825 54.5378 40.9715 54.5257 40.9563C54.5137 40.9412 54.5067 40.9226 54.5057 40.9033C54.4255 39.4045 54.3727 31.6341 61.1657 24.3282C65.3137 19.7474 66.1349 17.4486 66.289 16.5979C66.2932 16.5779 66.3038 16.5597 66.3192 16.5462C66.3345 16.5326 66.3538 16.5244 66.3743 16.5228C66.3947 16.5211 66.4151 16.5261 66.4324 16.537C66.4498 16.5478 66.4631 16.564 66.4705 16.5831C67.1165 18.4365 69.1092 26.8043 57.7312 38.1823C57.7312 38.1823 63.9839 27.8387 64.8472 22.0441C64.8476 22.0355 64.845 22.027 64.8399 22.02C64.8347 22.013 64.8274 22.008 64.819 22.0058C64.8106 22.0035 64.8017 22.0042 64.7938 22.0078C64.7859 22.0113 64.7794 22.0174 64.7755 22.0251C64.0409 23.8152 59.7662 33.9266 54.6746 40.9518Z" fill="#009D44"/>
<path d="M16.1571 21.3585H14.2045L9.17838 34.1276L4.22189 21.3585H0.574189C0.418869 21.3676 0.272914 21.4358 0.16618 21.549C0.0594453 21.6622 0 21.8119 0 21.9675C0 22.1231 0.0594453 22.2728 0.16618 22.386C0.272914 22.4992 0.418869 22.5673 0.574189 22.5765H1.31091L7.47908 38.4655C7.53955 38.6195 7.645 38.7517 7.78168 38.8448C7.91836 38.938 8.07994 38.9878 8.24535 38.9878C8.41076 38.9878 8.57233 38.938 8.70901 38.8448C8.84569 38.7517 8.95114 38.6195 9.01162 38.4655L9.94888 36.0865L15.2684 22.5765H16.1656C16.2486 22.5814 16.3317 22.5693 16.4098 22.5409C16.488 22.5125 16.5595 22.4684 16.62 22.4114C16.6805 22.3543 16.7287 22.2855 16.7616 22.2092C16.7945 22.1329 16.8115 22.0506 16.8115 21.9675C16.8115 21.8844 16.7945 21.8021 16.7616 21.7258C16.7287 21.6494 16.6805 21.5806 16.62 21.5236C16.5595 21.4666 16.488 21.4225 16.4098 21.3941C16.3317 21.3657 16.2486 21.3536 16.1656 21.3585H16.1571Z" fill="white"/>
<path d="M125.689 37.7757H124.961L118.793 21.8846C118.732 21.7306 118.627 21.5985 118.49 21.5053C118.353 21.4121 118.192 21.3623 118.026 21.3623C117.861 21.3623 117.699 21.4121 117.563 21.5053C117.426 21.5985 117.321 21.7306 117.26 21.8846L116.323 24.2636L111.003 37.7736H110.104C109.943 37.7736 109.788 37.8377 109.674 37.9517C109.56 38.0657 109.496 38.2203 109.496 38.3816C109.496 38.5428 109.56 38.6974 109.674 38.8115C109.788 38.9255 109.943 38.9895 110.104 38.9895H112.059L117.085 26.2205L122.041 38.9895H125.689C125.85 38.9895 126.005 38.9255 126.119 38.8115C126.233 38.6974 126.297 38.5428 126.297 38.3816C126.297 38.2203 126.233 38.0657 126.119 37.9517C126.005 37.8377 125.85 37.7736 125.689 37.7736V37.7757Z" fill="white"/>
<path d="M25.9766 22.5764C26.1319 22.5673 26.2779 22.4991 26.3846 22.3859C26.4913 22.2727 26.5508 22.123 26.5508 21.9674C26.5508 21.8118 26.4913 21.6621 26.3846 21.5489C26.2779 21.4357 26.1319 21.3675 25.9766 21.3584H22.8102C22.7302 21.3584 22.6509 21.3742 22.577 21.4049C22.5031 21.4356 22.436 21.4805 22.3796 21.5372C22.3231 21.5939 22.2783 21.6612 22.2479 21.7352C22.2175 21.8092 22.202 21.8884 22.2022 21.9685V37.657H21.5943C21.433 37.657 21.2784 37.721 21.1644 37.835C21.0504 37.949 20.9863 38.1037 20.9863 38.2649C20.9863 38.4262 21.0504 38.5808 21.1644 38.6948C21.2784 38.8088 21.433 38.8729 21.5943 38.8729H25.9724C26.1336 38.8729 26.2882 38.8088 26.4023 38.6948C26.5163 38.5808 26.5803 38.4262 26.5803 38.2649C26.5803 38.1037 26.5163 37.949 26.4023 37.835C26.2882 37.721 26.1336 37.657 25.9724 37.657H25.375V22.5764H25.9766Z" fill="white"/>
<path d="M105.127 21.3584H94.0767C93.9214 21.3675 93.7754 21.4357 93.6687 21.5489C93.562 21.6621 93.5025 21.8118 93.5025 21.9674C93.5025 22.123 93.562 22.2727 93.6687 22.3859C93.7754 22.4991 93.9214 22.5673 94.0767 22.5764H94.7944V37.657H94.0767C93.9155 37.657 93.7608 37.721 93.6468 37.835C93.5328 37.949 93.4688 38.1037 93.4688 38.2649C93.4688 38.4262 93.5328 38.5808 93.6468 38.6948C93.7608 38.8088 93.9155 38.8729 94.0767 38.8729H104.857C105.051 38.8729 105.237 38.7959 105.374 38.659C105.511 38.522 105.588 38.3362 105.588 38.1425V36.8168C105.588 36.6556 105.524 36.5009 105.41 36.3869C105.296 36.2729 105.141 36.2089 104.98 36.2089C104.818 36.2089 104.664 36.2729 104.55 36.3869C104.436 36.5009 104.372 36.6556 104.372 36.8168V37.4501H97.9566V30.5917H101.49V31.3157C101.49 31.4769 101.554 31.6316 101.668 31.7456C101.782 31.8596 101.937 31.9237 102.098 31.9237C102.26 31.9237 102.414 31.8596 102.528 31.7456C102.642 31.6316 102.706 31.4769 102.706 31.3157V28.4406C102.706 28.2794 102.642 28.1247 102.528 28.0107C102.414 27.8967 102.26 27.8327 102.098 27.8327C101.937 27.8327 101.782 27.8967 101.668 28.0107C101.554 28.1247 101.49 28.2794 101.49 28.4406V29.1647H97.9566V22.7875H104.372V23.4208C104.372 23.582 104.436 23.7367 104.55 23.8507C104.664 23.9647 104.818 24.0287 104.98 24.0287C105.141 24.0287 105.296 23.9647 105.41 23.8507C105.524 23.7367 105.588 23.582 105.588 23.4208V21.8228C105.588 21.7621 105.576 21.7019 105.553 21.6457C105.53 21.5895 105.496 21.5384 105.454 21.4953C105.411 21.4522 105.36 21.4179 105.304 21.3944C105.248 21.3709 105.188 21.3587 105.127 21.3584Z" fill="white"/>
<path d="M72.4847 37.9205H71.4166L66.7493 26.0781C66.3449 27.3665 65.8278 28.6168 65.2041 29.8145L68.7146 38.8704H72.4763C72.6022 38.8704 72.7231 38.8204 72.8121 38.7313C72.9012 38.6423 72.9512 38.5214 72.9512 38.3955C72.9512 38.2695 72.9012 38.1487 72.8121 38.0596C72.7231 37.9705 72.6022 37.9205 72.4763 37.9205H72.4847Z" fill="white"/>
<path d="M49.9602 21.3585H48.2124C48.1271 21.3591 48.0455 21.3934 47.9854 21.4539C47.9252 21.5144 47.8915 21.5962 47.8915 21.6815V33.925L37.3009 21.4113V21.367H34.5736C34.4196 21.3655 34.2704 21.4202 34.1538 21.5209C34.0372 21.6215 33.9613 21.7611 33.9403 21.9137C33.9318 21.9984 33.9411 22.0841 33.9676 22.165C33.9941 22.2459 34.0373 22.3204 34.0944 22.3837C34.1515 22.4469 34.2212 22.4975 34.299 22.5321C34.3768 22.5668 34.461 22.5848 34.5461 22.585H35.2976V37.6655H34.5673C34.4136 37.664 34.2646 37.7184 34.1481 37.8187C34.0316 37.9189 33.9555 38.058 33.934 38.2102C33.9251 38.295 33.9341 38.3807 33.9606 38.4618C33.987 38.5429 34.0302 38.6175 34.0873 38.6808C34.1444 38.7441 34.2142 38.7947 34.2922 38.8293C34.3702 38.8638 34.4545 38.8816 34.5398 38.8814H36.731V25.5825L47.5981 38.531C47.7267 38.6852 47.8999 38.7959 48.0939 38.8478C48.2878 38.8997 48.4931 38.8903 48.6816 38.8209C48.87 38.7516 49.0324 38.6256 49.1464 38.4603C49.2605 38.295 49.3206 38.0985 49.3185 37.8977V22.5765H49.9961C50.0812 22.5764 50.1653 22.5584 50.2431 22.5237C50.3208 22.489 50.3903 22.4384 50.4472 22.3751C50.5041 22.3118 50.5471 22.2373 50.5734 22.1564C50.5997 22.0754 50.6087 21.9899 50.5998 21.9053C50.5787 21.7516 50.5019 21.6111 50.384 21.5103C50.2661 21.4095 50.1153 21.3555 49.9602 21.3585Z" fill="white"/>
<path d="M89.0522 21.3584H73.1125C73.0425 21.3584 72.9754 21.3862 72.9259 21.4357C72.8764 21.4852 72.8486 21.5523 72.8486 21.6223V23.4166C72.8486 23.5778 72.9127 23.7324 73.0267 23.8465C73.1407 23.9605 73.2953 24.0245 73.4566 24.0245C73.6178 24.0245 73.7725 23.9605 73.8865 23.8465C74.0005 23.7324 74.0645 23.5778 74.0645 23.4166V22.7833H79.5023V37.6528H78.7276C78.5664 37.6528 78.4117 37.7168 78.2977 37.8308C78.1837 37.9448 78.1196 38.0995 78.1196 38.2607C78.1196 38.4219 78.1837 38.5766 78.2977 38.6906C78.4117 38.8046 78.5664 38.8687 78.7276 38.8687H82.084C82.2376 38.8687 82.3849 38.8078 82.4937 38.6994C82.6025 38.591 82.664 38.4439 82.6645 38.2903V22.7875H88.1002V23.4208C88.1002 23.582 88.1642 23.7367 88.2782 23.8507C88.3923 23.9647 88.5469 24.0287 88.7081 24.0287C88.8694 24.0287 89.024 23.9647 89.138 23.8507C89.252 23.7367 89.3161 23.582 89.3161 23.4208V21.6265C89.3166 21.5915 89.3102 21.5567 89.2972 21.5242C89.2842 21.4917 89.2649 21.4621 89.2403 21.4372C89.2157 21.4122 89.1865 21.3924 89.1542 21.3789C89.1219 21.3654 89.0872 21.3584 89.0522 21.3584Z" fill="white"/>
<path d="M23.2386 5.75199L22.943 12.3677C22.8945 13.4675 23.4687 13.5013 24.4038 13.6659V14.0881H20.792V13.6659C21.6364 13.5013 22.1557 13.4675 22.2042 12.3677L22.5166 5.47335C22.5652 4.37355 21.991 4.33977 21.1382 4.17512V3.75293H24.6677C24.7331 4.13079 24.9632 4.54031 25.1764 5.01949L27.8024 11.1265L30.1667 5.01949C30.3507 4.61088 30.499 4.18711 30.61 3.75293H34.3527V4.17512C33.5083 4.33977 32.9573 4.37355 33.008 5.47335L33.3183 12.3677C33.369 13.4675 33.8439 13.5013 34.6989 13.6659V14.0881H29.8078V13.6659C30.6522 13.5013 31.2032 13.4675 31.1546 12.3677L30.8633 5.0786L27.319 14.0923H26.8251L23.2386 5.75199Z" fill="white"/>
<path d="M35.5186 8.95512C35.5186 5.81826 37.7519 3.48778 40.855 3.48778C43.8927 3.48778 46.1324 5.71904 46.1324 8.87279C46.1324 11.959 43.9011 14.2895 40.798 14.2895C37.7519 14.2895 35.5186 12.0561 35.5186 8.95512ZM41.0682 13.633C42.7929 13.633 43.8272 12.073 43.8272 9.36464C43.8272 6.26156 42.5607 4.14428 40.5764 4.14428C38.8517 4.14428 37.8174 5.70427 37.8174 8.46116C37.8174 11.5157 39.0818 13.633 41.0682 13.633ZM40.8044 0.00683594L43.1264 2.48508L42.8963 2.73206L40.8107 1.33673L38.7272 2.73206L38.4971 2.46819L40.8044 0.00683594ZM40.8212 14.8805C41.0551 14.8835 41.2828 14.9557 41.4756 15.0881C41.6684 15.2206 41.8176 15.4072 41.9043 15.6244C41.991 15.8416 42.0113 16.0797 41.9626 16.3085C41.914 16.5372 41.7985 16.7464 41.631 16.9096C41.4634 17.0727 41.2512 17.1825 41.0212 17.225C40.7912 17.2675 40.5538 17.2408 40.3389 17.1484C40.1241 17.0559 39.9415 16.9017 39.8143 16.7055C39.6871 16.5092 39.621 16.2796 39.6243 16.0458C39.6293 15.7328 39.7581 15.4345 39.9823 15.2162C40.2066 14.9978 40.5082 14.8771 40.8212 14.8805Z" fill="white"/>
<path d="M47.4375 8.92087C47.4375 5.78401 49.7849 3.4873 53.2489 3.4873C54.678 3.4873 55.8601 3.87994 56.4681 4.24091C56.4666 4.98124 56.5047 5.72112 56.5821 6.4574H55.9087C55.5161 4.73487 54.3656 4.13536 53.0695 4.13536C50.8361 4.13536 49.7701 5.87478 49.7701 8.27281C49.7701 11.2767 51.5095 13.394 54.0215 13.394C54.7604 13.394 55.8601 13.2145 56.5335 12.5242L56.9114 12.919C56.2549 13.6409 54.8427 14.2805 53.0526 14.2805C49.6519 14.289 47.4375 11.9754 47.4375 8.92087Z" fill="white"/>
<path d="M61.5723 8.92087C61.5723 5.78401 63.9196 3.4873 67.3837 3.4873C68.8128 3.4873 69.9949 3.87994 70.6029 4.24091C70.6014 4.98124 70.6394 5.72112 70.7169 6.4574H70.0435C69.6508 4.73487 68.5004 4.13536 67.2043 4.13536C64.9709 4.13536 63.9027 5.87478 63.9027 8.27281C63.9027 11.2767 65.6443 13.394 68.1563 13.394C68.8951 13.394 69.9949 13.2145 70.6683 12.5242L71.0462 12.919C70.3897 13.6409 68.9775 14.2805 67.1874 14.2805C63.7951 14.289 61.5723 11.9754 61.5723 8.92087Z" fill="white"/>
<path d="M73.2279 12.3677V5.47335C73.2279 4.37355 72.7192 4.33977 71.8643 4.17512V3.75293H76.7574V4.17512C75.913 4.33977 75.3959 4.37355 75.3959 5.47335V8.61654H79.6642V5.47335C79.6642 4.37355 79.1533 4.33977 78.3005 4.17512V3.75293H83.1937V4.17512C82.3493 4.33977 81.83 4.37355 81.83 5.47335V12.3677C81.83 13.4675 82.3388 13.5013 83.1937 13.6659V14.0881H78.3005V13.6659C79.1449 13.5013 79.6642 13.4675 79.6642 12.3677V9.24983H75.4043V12.3677C75.4043 13.4675 75.913 13.5013 76.7659 13.6659V14.0881H71.8643V13.6659C72.7192 13.5013 73.2279 13.4717 73.2279 12.3677Z" fill="white"/>
<path d="M84.8821 12.7142L88.7915 3.63715H89.4966L93.4525 12.7311C93.7649 13.4551 93.9612 13.5206 94.8162 13.6683V14.0905H90.0876V13.6683C90.7927 13.5206 91.4175 13.4572 91.1051 12.7311L90.3663 11.0233H86.3555L85.6336 12.7311C85.3211 13.4551 85.9291 13.5206 86.6363 13.6683V14.0905H83.5205V13.6683C84.3733 13.5185 84.5718 13.453 84.8821 12.7142ZM90.0876 10.3922L88.3313 6.33704L86.6236 10.3922H90.0876ZM89.0702 0L91.3922 2.47825L91.1621 2.72522L89.0786 1.3299L86.993 2.72522L86.7629 2.46136L89.0702 0Z" fill="white"/>
<path d="M95.6869 9.95488V5.47335C95.6869 4.37355 95.1782 4.33977 94.3232 4.17512V3.75293H99.2333V4.17512C98.3889 4.33977 97.8696 4.37355 97.8696 5.47335V10.2019C97.8696 13.1234 99.3958 13.5498 100.481 13.5498C101.566 13.5498 103.255 13.1276 103.255 10.4151V5.47335C103.255 4.37355 102.712 4.33977 101.859 4.17512V3.75293H105.471V4.17512C104.536 4.33977 103.993 4.37355 103.993 5.47335V10.0942C103.993 13.4274 102.007 14.2971 99.9067 14.2971C97.9921 14.2886 95.6869 13.6005 95.6869 9.95488Z" fill="white"/>
<path d="M33.6926 53.0249C33.6895 52.8597 33.7241 52.696 33.7935 52.546C33.863 52.3961 33.9656 52.2639 34.0936 52.1594L34.3723 52.2059C34.4187 52.8244 35.0056 53.6709 35.7613 53.6709C35.894 53.673 36.0258 53.648 36.1485 53.5972C36.2712 53.5464 36.3822 53.471 36.4746 53.3756C36.567 53.2803 36.6388 53.167 36.6857 53.0428C36.7326 52.9185 36.7535 52.786 36.7471 52.6534C36.7471 51.4037 35.2061 50.572 35.2061 49.2759C35.2061 48.1339 36.3312 47.2705 37.5028 47.2705C38.1213 47.2705 38.8306 47.4816 38.8306 48.2584C38.8306 48.936 38.305 49.7994 37.1418 50.648C37.4363 51.041 37.6035 51.5146 37.621 52.0053C37.621 53.3331 36.3861 54.1965 35.1681 54.1965C34.0493 54.1965 33.6926 53.5337 33.6926 53.0249ZM37.0405 50.4918C37.6738 49.7973 37.9503 49.1028 37.9503 48.5181C37.9586 48.4106 37.9443 48.3026 37.9084 48.2009C37.8725 48.0992 37.8158 48.0062 37.7419 47.9277C37.6679 47.8492 37.5785 47.787 37.4792 47.7451C37.3798 47.7032 37.2729 47.6825 37.1651 47.6843C36.6859 47.6843 36.0695 48.0241 36.0695 48.6722C36.0695 49.2759 36.6099 49.8459 37.0405 50.4939V50.4918Z" fill="white"/>
<path d="M39.247 53.3011L40.9358 49.0792C41.415 47.9056 40.8133 48.1842 39.6101 49.8497L39.4096 49.6196C40.3975 48.0153 41.1828 47.2976 41.7696 47.2976C42.2023 47.2976 42.5105 47.6544 42.2783 48.1926L40.5896 52.4145C40.1125 53.5861 40.7437 53.2779 41.9174 51.6271L42.1285 51.8741C41.1405 53.4615 40.3848 54.1962 39.8064 54.1962C39.4011 54.1962 39.0317 53.8415 39.247 53.3011ZM42.3944 43.7217C42.5833 43.7238 42.764 43.7987 42.899 43.9309C43.0339 44.063 43.1125 44.2422 43.1185 44.431C43.1085 44.6165 43.0277 44.7912 42.8928 44.919C42.7579 45.0468 42.5792 45.118 42.3934 45.118C42.2076 45.118 42.0288 45.0468 41.8939 44.919C41.7591 44.7912 41.6783 44.6165 41.6683 44.431C41.6743 44.2418 41.7532 44.0624 41.8886 43.9301C42.0239 43.7979 42.2052 43.7232 42.3944 43.7217Z" fill="white"/>
<path d="M46.742 53.3798L48.0698 49.8925C48.454 48.8371 48.6398 48.227 48.0846 48.227C47.1895 48.227 45.1842 51.1274 44.0126 54.0426H42.9951L44.7831 49.0756C45.2053 47.9336 44.6459 48.2122 43.4574 49.8461L43.2463 49.616C44.2342 48.0117 45.0195 47.2939 45.6528 47.2939C46.0074 47.2939 46.208 47.5874 45.9927 48.0961L44.8042 51.1359H45.0153C46.742 48.1594 47.9706 47.2939 48.7939 47.2939C49.8493 47.2939 49.6108 48.4676 48.9796 50.0382L48.0529 52.4151C47.6307 53.5254 48.1627 53.2468 49.3659 51.596L49.5496 51.843C48.5638 53.4326 47.7912 54.1883 47.1896 54.1883C46.8349 54.1967 46.5415 53.9181 46.742 53.3798Z" fill="white"/>
<path d="M50.4307 52.1595C50.4307 49.924 52.358 47.2705 54.395 47.2705C55.3048 47.2705 55.7523 47.8257 55.7523 48.5371C55.7523 49.0458 55.5054 49.4638 55.0431 49.4638C54.5808 49.4638 54.471 49.0775 54.5027 48.5835C54.5639 47.8426 54.4562 47.6273 54.0699 47.6273C52.7126 47.6273 51.6022 50.2026 51.6022 51.7457C51.6022 52.6408 52.0033 53.3036 52.7907 53.3036C53.4388 53.3036 54.1628 52.8561 54.6715 52.1616L54.8109 52.4402C54.1628 53.673 53.0672 54.1986 52.1574 54.1986C51.1083 54.1965 50.4307 53.4556 50.4307 52.1595Z" fill="white"/>
<path d="M56.0908 52.2988C56.0908 49.9767 58.2968 47.2705 60.3022 47.2705C61.1465 47.2705 61.4442 47.8109 61.4442 48.3661C61.4442 49.5989 60.1016 50.6016 57.2793 51.2201C57.2488 51.4135 57.2332 51.609 57.2328 51.8048C57.2328 52.6386 57.655 53.3162 58.3749 53.3162C58.7593 53.286 59.1329 53.1742 59.4707 52.9882C59.8085 52.8022 60.1027 52.5463 60.3338 52.2376L60.4879 52.4845C60.1939 52.9743 59.7842 53.3845 59.2947 53.6789C58.8051 53.9734 58.2508 54.1431 57.6804 54.1733C56.6777 54.1817 56.0908 53.4556 56.0908 52.2988ZM60.3486 48.4991C60.3486 47.9735 60.1628 47.6969 59.7934 47.6969C58.949 47.6969 57.7585 49.3308 57.3722 50.8633C58.7295 50.5551 60.3486 50.0168 60.3486 48.5139V48.4991Z" fill="white"/>
<path d="M65.8838 52.8688L67.2412 48.6469C67.4734 47.9228 66.9942 47.8151 66.2385 47.7223L66.3166 47.4141H70.0656L69.9558 47.737C69.1389 47.8299 68.569 47.9228 68.3368 48.6469L66.9646 52.8688C66.7536 53.5485 67.2264 53.6414 68.0201 53.7342L67.8956 54.0424H64.1719L64.2795 53.7174C65.1133 53.6266 65.6538 53.5485 65.8838 52.8688Z" fill="white"/>
<path d="M76.6203 49.7801C76.6203 53.2653 72.7637 57.0903 69.4009 57.3077L69.3545 56.9362C72.3795 56.6428 75.4636 52.4336 75.4636 49.5015C75.4636 48.4988 75.0414 47.8127 74.2286 47.8127C72.656 47.8127 71.2058 50.0187 71.2058 51.5765C71.2058 52.4864 71.685 53.0415 72.656 53.0415C72.9844 53.0376 73.3108 52.9908 73.627 52.9022L73.5194 53.2421C73.0281 53.4943 72.4841 53.6266 71.9319 53.6284C70.697 53.6284 70.0194 52.8874 70.0194 51.6525C70.0194 49.493 72.162 47.2871 74.4144 47.2871C75.9427 47.285 76.6203 48.2877 76.6203 49.7801Z" fill="white"/>
<path d="M77.7461 52.1297C77.7461 50.6183 78.9345 49.4151 80.5072 48.7966C80.3034 48.5955 80.1423 48.3554 80.0335 48.0906C79.9247 47.8258 79.8704 47.5418 79.8739 47.2556C79.8739 45.6513 81.4001 44.2158 83.205 44.2158C84.5327 44.2158 85.1175 44.9568 85.1175 45.9046C85.1175 47.0445 84.2393 48.0155 83.0192 48.71C83.7918 49.1322 84.2858 49.6979 84.2858 50.6099C84.2858 52.554 82.1263 54.1985 80.0428 54.1985C78.6116 54.1816 77.7461 53.3942 77.7461 52.1297ZM80.1842 53.7341C81.7738 53.7341 83.0213 52.1445 83.0213 51.0194C83.0213 50.2637 82.5295 49.8626 81.5099 49.3686L81.2798 49.2905C81.1333 49.2323 80.9921 49.1617 80.8576 49.0794C79.4707 49.7275 78.6221 50.8843 78.6221 52.134C78.6263 53.1156 79.2047 53.7341 80.1842 53.7341ZM82.0967 48.2878L82.5738 48.4989C83.6546 47.8656 84.3343 46.8102 84.3343 45.8455C84.3343 45.1826 83.9797 44.6591 83.1923 44.6591C81.9891 44.6591 81.0814 45.8307 81.0814 46.8651C81.0793 47.3316 81.2629 47.8804 82.0967 48.2878Z" fill="white"/>
<path d="M83.8242 56.0326C83.8242 55.6104 84.1324 55.3845 84.5504 55.3845C85.2428 55.3845 85.0275 56.5878 86.028 56.5878C87.2629 56.5878 88.9285 54.6732 88.9285 53.0541C88.9285 52.083 88.2656 51.0487 85.952 51.4962L85.7979 51.188L88.2488 47.4094H90.6552C91.4426 47.4094 91.8289 47.3313 92.2595 46.8838H92.5698L91.5503 48.5493H87.9279L86.5241 50.6602C89.1923 50.2887 90.2562 51.3991 90.2562 52.8641C90.2562 55.0088 87.8962 56.9677 85.6291 56.9677C84.8586 56.972 83.8242 56.7461 83.8242 56.0326Z" fill="white"/>
</svg>
