<svg width="91" height="34" viewBox="0 0 91 34" fill="none" xmlns="http://www.w3.org/2000/svg">
<g clip-path="url(#clip0_5_2706)">
<path d="M13.3442 0.815674H20.212C20.6816 0.815674 21.1857 1.15009 21.3408 1.56199L33.2625 32.4136C33.4176 32.8255 33.172 33.1558 32.711 33.1558H25.9466C25.4813 33.1558 24.9772 32.8214 24.8393 32.4014L22.4912 25.7417H10.4618L8.11371 32.4054C7.96291 32.8214 7.47174 33.1599 7.00642 33.1599H0.595361C0.134351 33.1599 -0.115543 32.8296 0.0524891 32.4177L12.2111 1.56606C12.3748 1.15416 12.8875 0.815674 13.3442 0.815674ZM20.6472 20.0689L16.4981 7.8465L12.2499 20.0689H20.6472Z" fill="white"/>
<path d="M65.68 0.815674H77.6361C79.7516 0.815674 81.544 1.05221 83.0175 1.5212C84.4824 1.9902 85.6758 2.61416 86.5978 3.38494C87.5199 4.1598 88.1834 5.06109 88.5927 6.07248C89.002 7.09203 89.2088 8.15237 89.2088 9.25348C89.2088 10.2893 89.0149 11.2029 88.6185 11.994C88.2308 12.7852 87.7611 13.4581 87.2355 14.0291C86.7056 14.5919 86.1498 15.0405 85.5509 15.3626C84.9563 15.6848 84.4522 15.8928 84.0386 15.9948C84.6547 16.1212 85.3613 16.3618 86.167 16.7003C86.9727 17.0347 87.731 17.52 88.4462 18.1521C89.1657 18.7842 89.7732 19.5795 90.2601 20.5297C90.7556 21.4799 91.0054 22.6055 91.0054 23.8942C91.0054 25.5785 90.6866 27.0018 90.0576 28.1641C89.4285 29.3305 88.5367 30.2807 87.3992 31.027C86.2489 31.7693 84.8572 32.3117 83.1984 32.6461C81.5397 32.9886 79.6913 33.1518 77.6405 33.1518H65.6843C65.219 33.1518 64.8399 32.797 64.8399 32.3565V1.61092C64.8356 1.17456 65.2147 0.815674 65.68 0.815674ZM76.9209 13.764C77.5026 13.764 78.0756 13.7028 78.6357 13.5723C79.2001 13.4418 79.6913 13.242 80.1222 12.9646C80.5487 12.6914 80.8977 12.3203 81.1734 11.8513C81.4449 11.3864 81.5827 10.8073 81.5827 10.1303C81.5827 9.42069 81.4449 8.82527 81.1734 8.35628C80.8977 7.88728 80.5401 7.51617 80.0963 7.24293C79.6525 6.96969 79.1484 6.77393 78.584 6.65974C78.0239 6.54555 77.4681 6.49254 76.9209 6.49254H72.3625V13.764H76.9209ZM77.3819 27.5361C77.9291 27.5361 78.5409 27.4953 79.226 27.4137C79.9067 27.3322 80.5444 27.1446 81.1217 26.855C81.7034 26.5655 82.1859 26.1454 82.5737 25.5949C82.9701 25.0443 83.164 24.2857 83.164 23.3151C83.164 22.4383 82.9744 21.7287 82.6039 21.1782C82.2247 20.6317 81.7508 20.2035 81.1691 19.8976C80.5875 19.5877 79.9541 19.3797 79.2691 19.2696C78.584 19.1513 77.955 19.0983 77.3733 19.0983H72.3539V27.5361H77.3819Z" fill="white"/>
<path d="M50.579 22.7768C47.2054 22.7768 44.4824 20.1912 44.4824 17.002C44.4824 13.8129 47.2054 11.2273 50.579 11.2273C53.9482 11.2273 56.6755 13.8129 56.6755 17.002C56.6755 20.1912 53.9482 22.7768 50.579 22.7768Z" fill="#AFAFAF"/>
<path d="M57.3385 24.5508C55.4944 26.2147 53.0386 27.2383 50.3371 27.2383C44.5939 27.2383 39.9407 22.6544 39.9407 17.002C39.9407 11.3537 44.5939 6.76982 50.3371 6.76982C52.9438 6.76982 55.3307 7.72004 57.1532 9.27792C57.4979 9.57155 58.0235 9.5797 58.3553 9.26976L62.0347 5.7829C62.3622 5.46887 62.3665 4.96318 62.0347 4.66139C58.8335 1.7781 54.5336 0 49.7856 0C39.945 0 31.957 7.61401 31.957 17.002C31.957 26.3901 39.945 34 49.7813 34C54.6198 34 59.0015 32.1526 62.2114 29.1673C62.5388 28.8574 62.5259 28.3476 62.2028 28.0336L58.5147 24.5426C58.1872 24.2327 57.6745 24.249 57.3385 24.5508Z" fill="white"/>
</g>
<defs>
<clipPath id="clip0_5_2706">
<rect width="91" height="34" fill="white"/>
</clipPath>
</defs>
</svg>
